<?xml version="1.0" encoding="UTF-8" standalone="no"?>
<!-- Generator: Adobe Illustrator 14.0.0, SVG Export Plug-In . SVG Version: 6.00 Build 43363)  -->

<svg
   xmlns:dc="http://purl.org/dc/elements/1.1/"
   xmlns:cc="http://creativecommons.org/ns#"
   xmlns:rdf="http://www.w3.org/1999/02/22-rdf-syntax-ns#"
   xmlns:svg="http://www.w3.org/2000/svg"
   xmlns="http://www.w3.org/2000/svg"
   xmlns:xlink="http://www.w3.org/1999/xlink"
   xmlns:sodipodi="http://sodipodi.sourceforge.net/DTD/sodipodi-0.dtd"
   xmlns:inkscape="http://www.inkscape.org/namespaces/inkscape"
   version="1.1"
   x="0px"
   y="0px"
   width="640"
   height="86"
   viewBox="0 0 639.99999 85.999996"
   enable-background="new 0 0 841.89 595.275"
   xml:space="preserve"
   id="svg2"
   inkscape:version="0.48.2 r9819"
   sodipodi:docname="launcher.svg"><metadata
   id="metadata116"><rdf:RDF><cc:Work
       rdf:about=""><dc:format>image/svg+xml</dc:format><dc:type
         rdf:resource="http://purl.org/dc/dcmitype/StillImage" /><dc:title /></cc:Work></rdf:RDF></metadata><defs
   id="defs114"><radialGradient
     id="radialGradient5029"
     gradientUnits="userSpaceOnUse"
     cx="47.25"
     cy="82.5"
     r="3.78"
     fx="47.25"
     fy="82.5"
     gradientTransform="matrix(0.205043,0,0,0.205043,63.391105,1005.4048)"><stop
       offset="0.28599253"
       style="stop-color:#ffffff;stop-opacity:0;"
       id="stop5031" /><stop
       id="stop4671"
       style="stop-color:#7f7f7f;stop-opacity:0.49803922;"
       offset="0.80000001" /><stop
       offset="1.00"
       style="stop-color: rgb(0, 0, 0);"
       id="stop5033" /></radialGradient><radialGradient
     id="radialGradient5021"
     gradientUnits="userSpaceOnUse"
     cx="47.25"
     cy="82.5"
     r="3.78"
     fx="47.25"
     fy="82.5"
     gradientTransform="matrix(0.205043,0,0,0.205043,63.391105,1005.4048)"><stop
       offset="0.01"
       style="stop-color:#ffffff;stop-opacity:0;"
       id="stop5023" /><stop
       id="stop4673"
       style="stop-color:#ffffff;stop-opacity:0.49803922;"
       offset="0.80000001" /><stop
       offset="1"
       style="stop-color:#ffffff;stop-opacity:1;"
       id="stop5025" /></radialGradient><linearGradient
     id="linearGradient5091-68"><stop
       style="stop-color:#fffeff;stop-opacity:1;"
       offset="0"
       id="stop5093-8" /><stop
       style="stop-color:#fffeff;stop-opacity:0;"
       offset="1"
       id="stop5095-2" /></linearGradient><radialGradient
     id="radialGradient5029-1"
     gradientUnits="userSpaceOnUse"
     cx="47.25"
     cy="82.5"
     r="3.78"
     fx="47.25"
     fy="82.5"
     gradientTransform="matrix(0.205043,0,0,0.205043,63.391105,1005.4048)"><stop
       offset="0.28599253"
       style="stop-color:#000000;stop-opacity:0;"
       id="stop5031-7" /><stop
       id="stop4671-4"
       style="stop-color:#000000;stop-opacity:0;"
       offset="0.69999999" /><stop
       offset="0.80000001"
       style="stop-color:#000000;stop-opacity:0.19607843;"
       id="stop3766" /><stop
       offset="1.00"
       style="stop-color: rgb(0, 0, 0);"
       id="stop5033-0" /></radialGradient><radialGradient
     id="radialGradient5021-4"
     gradientUnits="userSpaceOnUse"
     cx="47.25"
     cy="82.5"
     r="3.78"
     fx="47.25"
     fy="82.5"
     gradientTransform="matrix(0.205043,0,0,0.205043,63.391105,1005.4048)"><stop
       offset="0"
       style="stop-color:#ffffff;stop-opacity:0;"
       id="stop5025-8" /><stop
       id="stop3768"
       style="stop-color:#ffffff;stop-opacity:0;"
       offset="0.60000002" /><stop
       id="stop3721-8"
       style="stop-color:#ffffff;stop-opacity:0.19607843;"
       offset="0.80000001" /><stop
       id="stop3719-2"
       style="stop-color:#ffffff;stop-opacity:1;"
       offset="1" /></radialGradient><linearGradient
     id="linearGradient5091-3"><stop
       style="stop-color:#fffeff;stop-opacity:1;"
       offset="0"
       id="stop5093-87" /><stop
       style="stop-color:#fffeff;stop-opacity:0;"
       offset="1"
       id="stop5095-4" /></linearGradient><linearGradient
     id="linearGradient5077-2"><stop
       style="stop-color:#fffeff;stop-opacity:1;"
       offset="0"
       id="stop5079-7" /><stop
       style="stop-color:#fffeff;stop-opacity:0;"
       offset="1"
       id="stop5081-7" /></linearGradient><linearGradient
     id="SVGID_1_"
     gradientUnits="userSpaceOnUse"
     x1="314.4512"
     y1="207.5654"
     x2="438.5957"
     y2="207.5654"><stop
       offset="0"
       style="stop-color:#FFFFFF"
       id="stop12" /><stop
       offset="0.3111"
       style="stop-color:#FCFDFD"
       id="stop14" /><stop
       offset="0.5297"
       style="stop-color:#F3F6F7"
       id="stop16" /><stop
       offset="0.7199"
       style="stop-color:#E3E9ED"
       id="stop18" /><stop
       offset="0.893"
       style="stop-color:#CED8DF"
       id="stop20" /><stop
       offset="1"
       style="stop-color:#BCCAD4"
       id="stop22" /></linearGradient><linearGradient
     id="SVGID_2_"
     gradientUnits="userSpaceOnUse"
     x1="296.84329"
     y1="304.44629"
     x2="103.0829"
     y2="110.6859"><stop
       offset="0"
       style="stop-color:#FFFFFF"
       id="stop67" /><stop
       offset="1"
       style="stop-color:#143A59"
       id="stop69" /></linearGradient><linearGradient
     inkscape:collect="always"
     xlink:href="#SVGID_3_"
     id="linearGradient5322-6"
     gradientUnits="userSpaceOnUse"
     x1="41.3843"
     y1="207.5654"
     x2="334"
     y2="207.5654" /><linearGradient
     id="SVGID_3_"
     gradientUnits="userSpaceOnUse"
     x1="41.3843"
     y1="207.5654"
     x2="334"
     y2="207.5654"><stop
       offset="0"
       style="stop-color:#ffffff;stop-opacity:0.19607843;"
       id="stop74" /><stop
       offset="1"
       style="stop-color:#3f74a7;stop-opacity:0.39215687;"
       id="stop76" /></linearGradient><linearGradient
     id="SVGID_4_"
     gradientUnits="userSpaceOnUse"
     x1="2.5546999"
     y1="304.44629"
     x2="-191.2057"
     y2="110.6859"
     gradientTransform="matrix(-1,0,0,1,458.7852,0)"><stop
       offset="0"
       style="stop-color:#FFFFFF"
       id="stop81" /><stop
       offset="1"
       style="stop-color:#143A59"
       id="stop83" /></linearGradient><linearGradient
     inkscape:collect="always"
     xlink:href="#SVGID_3_"
     id="linearGradient6095-0"
     gradientUnits="userSpaceOnUse"
     gradientTransform="matrix(-1,0,0,1,458.7852,0)"
     x1="-252.9053"
     y1="207.5654"
     x2="39.710899"
     y2="207.5654" /><linearGradient
     inkscape:collect="always"
     xlink:href="#SVGID_2_"
     id="linearGradient5145"
     gradientUnits="userSpaceOnUse"
     x1="374.50879"
     y1="207.56551"
     x2="39.767006"
     y2="207.56551" /><linearGradient
     inkscape:collect="always"
     xlink:href="#SVGID_4_"
     id="linearGradient5147"
     gradientUnits="userSpaceOnUse"
     gradientTransform="matrix(-1,0,0,1,458.7852,0)"
     x1="84.955666"
     y1="205.94392"
     x2="-256.37762"
     y2="205.94394" /><radialGradient
     id="radialGradient5029-1-6"
     gradientUnits="userSpaceOnUse"
     cx="47.25"
     cy="82.5"
     r="3.78"
     fx="47.25"
     fy="82.5"
     gradientTransform="matrix(0.205043,0,0,0.205043,63.391105,1005.4048)"><stop
       offset="0.28599253"
       style="stop-color:#000000;stop-opacity:0;"
       id="stop5031-7-5" /><stop
       id="stop4671-4-0"
       style="stop-color:#000000;stop-opacity:0;"
       offset="0.69999999" /><stop
       offset="0.80000001"
       style="stop-color:#000000;stop-opacity:0.19607843;"
       id="stop3766-9" /><stop
       offset="1.00"
       style="stop-color: rgb(0, 0, 0);"
       id="stop5033-0-0" /></radialGradient><radialGradient
     id="radialGradient5021-4-6"
     gradientUnits="userSpaceOnUse"
     cx="47.25"
     cy="82.5"
     r="3.78"
     fx="47.25"
     fy="82.5"
     gradientTransform="matrix(0.205043,0,0,0.205043,63.391105,1005.4048)"><stop
       offset="0"
       style="stop-color:#ffffff;stop-opacity:0;"
       id="stop5025-8-1" /><stop
       id="stop3768-3"
       style="stop-color:#ffffff;stop-opacity:0;"
       offset="0.60000002" /><stop
       id="stop3721-8-8"
       style="stop-color:#ffffff;stop-opacity:0.19607843;"
       offset="0.80000001" /><stop
       id="stop3719-2-9"
       style="stop-color:#ffffff;stop-opacity:1;"
       offset="1" /></radialGradient><linearGradient
     id="linearGradient5091-3-6"><stop
       style="stop-color:#fffeff;stop-opacity:1;"
       offset="0"
       id="stop5093-87-6" /><stop
       style="stop-color:#fffeff;stop-opacity:0;"
       offset="1"
       id="stop5095-4-1" /></linearGradient><linearGradient
     id="linearGradient5077-2-4"><stop
       style="stop-color:#fffeff;stop-opacity:1;"
       offset="0"
       id="stop5079-7-9" /><stop
       style="stop-color:#fffeff;stop-opacity:0;"
       offset="1"
       id="stop5081-7-6" /></linearGradient><clipPath
     clipPathUnits="userSpaceOnUse"
     id="clipPath3328"><path
       style="fill:none;stroke:#000000;stroke-width:1px;stroke-linecap:butt;stroke-linejoin:miter;stroke-opacity:1"
       d="m 72.321428,883.96932 6.428575,1.07143 11.42857,3.57143 25.714287,9.10714 16.25,8.75 13.21429,10.53571 12.85714,13.21429 11.07143,13.03571 -4.10714,4.10715 -17.5,18.92857 -11.25,14.99999 -8.03572,13.39286 -4.82143,9.2857 -4.10714,8.2143 -0.35714,1.6071 1.78571,3.2143 3.21429,6.4286 2.67857,8.5714 1.78571,6.6072 -0.17857,3.9285 -2.85714,-0.7142 -3.75,-6.25 -5.71429,-6.6072 -5.53571,-5.8928 -8.57143,-8.2143 -6.785717,-5.8929 -10.71429,-8.5714 -8.92857,-6.60716 -9.107142,-5.71428 L 56.25,982.00503 46.071428,977.1836 37.5,973.61218 l -8.035715,-3.21429 -10,-3.92857 -11.2499992,-3.21429 -6.071429,-1.96428 0,-1.25 0.178572,-2.14286 29.9999992,0 1.428572,-0.17857 5.357143,-8.39286 8.75,-12.85714 8.75,-13.57143 5.357143,-12.14286 4.821428,-11.42857 2.5,-8.03571 z"
       id="path3330"
       inkscape:connector-curvature="0" /></clipPath><clipPath
     clipPathUnits="userSpaceOnUse"
     id="clipPath3328-5"><path
       style="fill:none;stroke:#000000;stroke-width:1px;stroke-linecap:butt;stroke-linejoin:miter;stroke-opacity:1"
       d="m 72.321428,883.96932 6.428575,1.07143 11.42857,3.57143 25.714287,9.10714 16.25,8.75 13.21429,10.53571 12.85714,13.21429 11.07143,13.03571 -4.10714,4.10715 -17.5,18.92857 -11.25,14.99999 -8.03572,13.39286 -4.82143,9.2857 -4.10714,8.2143 -0.35714,1.6071 1.78571,3.2143 3.21429,6.4286 2.67857,8.5714 1.78571,6.6072 -0.17857,3.9285 -2.85714,-0.7142 -3.75,-6.25 -5.71429,-6.6072 -5.53571,-5.8928 -8.57143,-8.2143 -6.785717,-5.8929 -10.71429,-8.5714 -8.92857,-6.60716 -9.107142,-5.71428 L 56.25,982.00503 46.071428,977.1836 37.5,973.61218 l -8.035715,-3.21429 -10,-3.92857 -11.2499992,-3.21429 -6.071429,-1.96428 0,-1.25 0.178572,-2.14286 29.9999992,0 1.428572,-0.17857 5.357143,-8.39286 8.75,-12.85714 8.75,-13.57143 5.357143,-12.14286 4.821428,-11.42857 2.5,-8.03571 z"
       id="path3330-5"
       inkscape:connector-curvature="0" /></clipPath><clipPath
     clipPathUnits="userSpaceOnUse"
     id="clipPath3328-52"><path
       style="fill:none;stroke:#000000;stroke-width:1px;stroke-linecap:butt;stroke-linejoin:miter;stroke-opacity:1"
       d="m 72.321428,883.96932 6.428575,1.07143 11.42857,3.57143 25.714287,9.10714 16.25,8.75 13.21429,10.53571 12.85714,13.21429 11.07143,13.03571 -4.10714,4.10715 -17.5,18.92857 -11.25,14.99999 -8.03572,13.39286 -4.82143,9.2857 -4.10714,8.2143 -0.35714,1.6071 1.78571,3.2143 3.21429,6.4286 2.67857,8.5714 1.78571,6.6072 -0.17857,3.9285 -2.85714,-0.7142 -3.75,-6.25 -5.71429,-6.6072 -5.53571,-5.8928 -8.57143,-8.2143 -6.785717,-5.8929 -10.71429,-8.5714 -8.92857,-6.60716 -9.107142,-5.71428 L 56.25,982.00503 46.071428,977.1836 37.5,973.61218 l -8.035715,-3.21429 -10,-3.92857 -11.2499992,-3.21429 -6.071429,-1.96428 0,-1.25 0.178572,-2.14286 29.9999992,0 1.428572,-0.17857 5.357143,-8.39286 8.75,-12.85714 8.75,-13.57143 5.357143,-12.14286 4.821428,-11.42857 2.5,-8.03571 z"
       id="path3330-3"
       inkscape:connector-curvature="0" /></clipPath><filter
     color-interpolation-filters="sRGB"
     inkscape:collect="always"
     id="filter3318"><feBlend
       inkscape:collect="always"
       mode="lighten"
       in2="BackgroundImage"
       id="feBlend3320" /></filter><filter
     color-interpolation-filters="sRGB"
     inkscape:collect="always"
     id="filter3318-7"><feBlend
       inkscape:collect="always"
       mode="lighten"
       in2="BackgroundImage"
       id="feBlend3320-4" /></filter></defs><sodipodi:namedview
   pagecolor="#ff00ff"
   bordercolor="#666666"
   borderopacity="1"
   objecttolerance="10"
   gridtolerance="10"
   guidetolerance="10"
   inkscape:pageopacity="0"
   inkscape:pageshadow="2"
   inkscape:window-width="1440"
   inkscape:window-height="878"
   id="namedview112"
   showgrid="false"
   inkscape:zoom="2.8284271"
   inkscape:cx="290.50817"
   inkscape:cy="27.803926"
   inkscape:window-x="1272"
   inkscape:window-y="-8"
   inkscape:window-maximized="1"
   inkscape:current-layer="layer5" />
<g
   inkscape:groupmode="layer"
   id="layer5"
   inkscape:label="Surround"><g
     id="Layer_1"
     transform="matrix(0.94395535,0,0,0.94395223,-35.418621,-152.81993)"><linearGradient
       id="linearGradient4991"
       gradientUnits="userSpaceOnUse"
       x1="314.4512"
       y1="207.5654"
       x2="438.5957"
       y2="207.5654"><stop
         offset="0"
         style="stop-color:#FFFFFF"
         id="stop4993" /><stop
         offset="0.3111"
         style="stop-color:#FCFDFD"
         id="stop4995" /><stop
         offset="0.5297"
         style="stop-color:#F3F6F7"
         id="stop4997" /><stop
         offset="0.7199"
         style="stop-color:#E3E9ED"
         id="stop4999" /><stop
         offset="0.893"
         style="stop-color:#CED8DF"
         id="stop5001" /><stop
         offset="1"
         style="stop-color:#BCCAD4"
         id="stop5003" /></linearGradient><linearGradient
       id="linearGradient5006"
       gradientUnits="userSpaceOnUse"
       x1="296.84329"
       y1="304.44629"
       x2="103.0829"
       y2="110.6859"><stop
         offset="0"
         style="stop-color:#FFFFFF"
         id="stop5008" /><stop
         offset="1"
         style="stop-color:#143A59"
         id="stop5010" /></linearGradient><path
       d="m 317.654,207.565 c 0,-20.566 12.674,-38.163 30.634,-45.434 H 55.715 c -24.258,0 -24.258,90.869 0,90.869 h 292.574 c -17.96,-7.271 -30.635,-24.867 -30.635,-45.435 z"
       id="path71"
       style="fill:url(#linearGradient5145)" /><linearGradient
       id="linearGradient5013"
       gradientUnits="userSpaceOnUse"
       x1="41.3843"
       y1="207.5654"
       x2="334"
       y2="207.5654"><stop
         offset="0"
         style="stop-color:#ffffff;stop-opacity:0.19607843;"
         id="stop5015" /><stop
         offset="1"
         style="stop-color:#3f74a7;stop-opacity:0.39215687;"
         id="stop5017" /></linearGradient><path
       style="fill:#ffffff"
       d="m 55.715,165.995 c -8.036,0 -14.331,18.26 -14.331,41.571 0,23.311 6.295,41.571 14.331,41.571 0,0 253.7,0 278.28499,0 C 321.417,239.293 313.79,224.146 313.79,207.566 c 0,-16.579 7.628,-31.726 20.20999,-41.571 -24.58499,0 -278.28499,0 -278.28499,0 z"
       id="path78-7" /><path
       d="m 55.715,165.995 c -8.036,0 -14.331,18.26 -14.331,41.571 0,23.311 6.295,41.571 14.331,41.571 0,0 253.7,0 278.285,0 -12.583,-9.844 -20.21,-24.991 -20.21,-41.571 0,-16.579 7.628,-31.726 20.21,-41.571 -24.585,0 -278.285,0 -278.285,0 z"
       id="path78"
       style="fill:url(#linearGradient5322-6)" /><linearGradient
       id="linearGradient5021"
       gradientUnits="userSpaceOnUse"
       x1="2.5546999"
       y1="304.44629"
       x2="-191.2057"
       y2="110.6859"
       gradientTransform="matrix(-1,0,0,1,458.7852,0)"><stop
         offset="0"
         style="stop-color:#FFFFFF"
         id="stop5023-2" /><stop
         offset="1"
         style="stop-color:#143A59"
         id="stop5025-4" /></linearGradient><path
       d="m 435.421,207.565 c 0,-20.566 -12.675,-38.163 -30.635,-45.434 h 292.573 c 24.258,0 24.258,90.869 0,90.869 H 404.785 c 17.96,-7.271 30.636,-24.867 30.636,-45.435 z"
       id="path85"
       style="fill:url(#linearGradient5147)" /><path
       d="m 697.35899,165.995 c 8.036,0 14.331,18.26 14.331,41.571 0,23.311 -6.295,41.571 -14.331,41.571 0,0 -253.7,0 -278.285,0 12.583,-9.844 20.21,-24.991 20.21,-41.571 0,-16.579 -7.627,-31.726 -20.209,-41.571 24.584,0 278.284,0 278.284,0 z"
       id="path92-7"
       style="fill:#ffffff;fill-opacity:1" /><linearGradient
       id="SVGID_5_"
       gradientUnits="userSpaceOnUse"
       x1="-252.9053"
       y1="207.5654"
       x2="39.710899"
       y2="207.5654"
       gradientTransform="matrix(-1,0,0,1,458.7852,0)"><stop
         offset="0"
         style="stop-color:#FFFFFF"
         id="stop88" /><stop
         offset="1"
         style="stop-color:#D7E9F7"
         id="stop90" /></linearGradient><path
       d="m 697.359,165.995 c 8.036,0 14.331,18.26 14.331,41.571 0,23.311 -6.295,41.571 -14.331,41.571 0,0 -253.7,0 -278.285,0 12.583,-9.844 20.21,-24.991 20.21,-41.571 0,-16.579 -7.627,-31.726 -20.209,-41.571 24.584,0 278.284,0 278.284,0 z"
       id="path92"
       style="fill:url(#linearGradient6095-0);fill-opacity:1" /><g
       transform="matrix(1.0620082,0,0,1.0217637,61.952197,122.59923)"
       id="g46-7-7"
       style="fill:#007fff;fill-opacity:1;stroke:#000000;stroke-opacity:1" /></g><g
     id="Layer_5"
     transform="matrix(0.94395535,0,0,0.94395223,-35.418621,-152.81993)" /><path
     style="fill:#ff0000;fill-opacity:1;stroke:#000000;stroke-width:0.16568813;stroke-miterlimit:4;stroke-opacity:1;stroke-dasharray:none;display:inline;filter:url(#filter3318)"
     d=""
     id="path3162"
     inkscape:connector-curvature="0" /><path
     style="fill:#ff0000;fill-opacity:1;stroke:#000000;stroke-width:0.35714287;stroke-miterlimit:4;stroke-opacity:1;stroke-dasharray:none;display:inline;filter:url(#filter3318)"
     d=""
     id="path3162-3"
     inkscape:connector-curvature="0" /><path
     style="fill:#ff0000;fill-opacity:1;stroke:#000000;stroke-width:0.35714287;stroke-miterlimit:4;stroke-opacity:1;stroke-dasharray:none;display:inline;filter:url(#filter3318)"
     d=""
     id="path3162-5"
     inkscape:connector-curvature="0" /><path
     style="fill:#000000;fill-opacity:1;stroke:#000000;stroke-width:0.98354685px;stroke-linecap:butt;stroke-linejoin:miter;stroke-opacity:1;display:inline;filter:url(#filter3318)"
     d="m 282.83422,25.721374 3.79855,-3.85611 3.40467,-3.34688 3.47741,-3.47732 1.9871,-1.98703 3.47742,-2.98055 4.47096,-3.9740699 1.98709,-1.73866 3.47742,-2.73217 2.48387,-1.73864997 1.34482,-1.15408003 1.38743,-1.08134 2.98065,-1.98703 4.47096,-2.98056 3.15628,-1.92935 3.65305,-2.1475901 3.62292,-2.13254 3.22903,-1.49027 2.73225,-1.16915 3.08353,-1.08134 4.11969,-1.4752 4.71935,-1.49028 4.47097,-1.24189 5.87088,-1.22683 6.54846,-1.25696 3.81362,-0.71501 3.65745,-0.48225 2.98635,-0.2289 4.12019,-0.16672 3.94729,0.17416 2.83635,0.17685 0.49678,2.73216 0.49678,2.4838 0.99354,3.97407 0.92373,3.77033 1.06336,4.4261801 1.09792,4.88327 0.88918,3.31325003 0.99355,4.32552997 1.35068,4.67456 1.13318,3.6672599 0.74517,2.48379 1.24193,3.97407 1.49033,4.96758 1.49032,4.22245 1.7387,4.50978 1.49032,3.43836 1.73871,3.97407 1.24194,2.73217 2.23548,4.22245 2.23548,4.7192 2.23548,3.97407 2.48387,4.22245 1.5932,2.48379 1.63583,2.73218 0.99355,1.49027 3.12614,0.4817 2.90789,0.43908 2.41112,0.49676 2.49894,0.58458 2.2781,0.65732 3.9165,1.3297 c 0,0 2.60099,1.00776 4.04693,1.5781 1.18783,0.46853 4.13477,1.98704 4.13477,1.98704 l 3.12614,1.9569 1.60827,1.16914 -2.48386,0 -2.48387,-0.0728 -2.48387,0.0728 -2.23548,0.24839 -3.47742,0.3362 -3.97419,0.65731 -2.98064,0.49676 -5.30157,0.95511 -3.95181,0.79034 -3.86399,0.79033 -3.24927,0.79035 -3.07363,0.79034 -2.98582,0.79033 -2.01981,0.70252 -2.898,0.70253 -3.07363,1.14159 -2.10762,0.61469 -2.72236,0.79037 -2.28327,0.79036 -2.98581,1.05372 -3.95181,1.40517 -2.98582,1.14169 -2.37108,1.0537 -3.33708,1.4929 -2.63454,1.1416 -2.98581,1.4928 -3.24927,1.5808 -3.60054,1.844096 -3.60054,2.1953 -4.03962,2.1955 -3.864,2.1953 -3.86399,2.4588 -2.98581,2.0198 -2.81018,1.8441 -2.63454,1.8442 -2.81018,2.0196 -2.28326,1.6686 -2.37109,1.5806 -2.10763,1.5808 -2.72236,2.1075 -2.63454,2.1076 -2.37109,1.9319 -2.19545,1.7563 -2.81018,2.5467 -2.19545,1.9318 -2.89799,2.7224 -3.86399,3.6882 -2.01982,1.8441 0.43909,-2.1075 0.61989,-2.7543 1.04865,-2.8659 1.14965,-2.312 11.40833,-18.7637 1.40509,-3.0735 0,-1.1416 -1.58073,-4.0396 -2.01981,-4.8298 -0.70776,-2.178096 -2.32171,-5.5435 -2.10764,-5.5708 -1.72882,-4.20941 -1.932,-5.08239 -2.26144,-5.39001 -2.05826,-4.65421 -2.26144,-4.6875 -2.52489,-4.85221 -2.20637,-3.67161 -1.58072,-2.63445 -1.84418,-2.89791 -1.4929,-2.37101 -1.92108,-2.97482 -1.46538,-2.06339 -1.75636,-2.42038 -2.05826,-3.25489 -1.932,-2.81009 -2.01981,-3.16135 -1.49291,-2.37101 -1.22945,-1.93194 -0.70255,-0.87816 z"
     id="path4931"
     inkscape:connector-curvature="0"
     sodipodi:nodetypes="ccccccccccccccccccccccccccccccccccccccccccccccccccccccccccccccsccccccccccccccccccccccccccccccccccccccccccccccccccccccccccccccccccccccccccccccccccc"
     transform="matrix(0.53817287,0,0,0.50475593,130.22957,13.450389)" /><path
     style="fill:#ffffff;fill-opacity:1;stroke:#000000;stroke-width:1px;stroke-linecap:butt;stroke-linejoin:miter;stroke-opacity:1;display:inline;filter:url(#filter3318)"
     d="m 308.29752,22.077554 2.90419,-2.90419 2.52538,-2.27284 1.51523,-0.37881 1.38896,2.52538 2.02031,3.283 2.52538,4.29315 2.0203,3.03045 3.53554,5.66045 2.39911,4.18854 2.39911,4.54569 2.52538,4.54569 2.39912,4.67195 2.39911,4.67196 2.27284,4.41941 1.89404,4.16688 2.28182,4.8595 2.12491,4.34541 2.53435,4.80725 2.37745,4.69357 -2.34309,1.43235 -2.22054,1.14906 -2.86087,1.56756 -2.14657,1.6415 -1.01015,-3.0305 -1.6415,-4.2931 -0.88388,-2.5254 -1.01016,-2.9042 -1.64149,-3.78808 -1.6415,-4.04058 -1.89404,-3.78807 -1.51523,-3.40926 -1.6415,-3.15673 -1.76776,-3.6618 -2.27285,-4.41942 -1.38896,-2.65165 -2.13125,-3.92069 -2.28816,-3.90799 -1.76777,-3.15673 -1.40428,-2.51006 -1.37364,-2.28816 -1.13642,-2.27285 -1.38896,-2.39911 -1.51523,-2.39911 -1.89403,-2.52538 z"
     id="path5165"
     inkscape:connector-curvature="0"
     sodipodi:nodetypes="cccccccccccccccccccccccccccccccccccccccccccccc"
     transform="matrix(0.53817287,0,0,0.50475593,130.22957,13.450389)" /><path
     style="fill:#ffffff;fill-opacity:1;stroke:#000000;stroke-width:1px;stroke-linecap:butt;stroke-linejoin:miter;stroke-opacity:1;display:inline;filter:url(#filter3318-7)"
     d="m 298.60558,30.077474 2.90419,-2.90419 2.52538,-2.27284 1.51523,-0.37881 1.38896,2.52538 2.02031,3.283 2.52538,4.29315 2.02031,3.03045 3.35696,5.48187 2.57768,4.36712 2.39911,4.54569 2.52539,4.54568 2.39911,4.672 2.39911,4.6719 2.27284,4.4194 1.89404,4.1669 1.38896,3.7881 1.76777,4.1669 1.64149,3.9143 1.38896,3.9144 0.88389,2.6516 -2.77792,2.6518 -2.39911,1.7678 -2.14658,1.6415 -1.01015,-3.0305 -1.6415,-4.2933 -0.88388,-2.5254 -1.01015,-2.9041 -1.6415,-3.7881 -1.6415,-4.0406 -1.89404,-3.7881 -1.51523,-3.4093 -1.64149,-3.1567 -1.76777,-3.6618 -2.27284,-4.4194 -1.38896,-2.65168 -2.13126,-4.00998 -2.28816,-3.8187 -1.76777,-3.15673 -1.31499,-2.59935 -1.19507,-2.28816 -1.40428,-2.18356 -1.38896,-2.39911 -1.51523,-2.39911 -1.89404,-2.52538 z"
     id="path5165-1"
     inkscape:connector-curvature="0"
     clip-path="none"
     mask="none"
     sodipodi:nodetypes="cccccccccccccccccccccccccccccccccccccccccccccc"
     transform="matrix(0.53817287,0,0,0.50475593,130.22957,13.450389)" /><path
     style="fill:#ffffff;fill-opacity:1;stroke:#000000;stroke-width:1px;stroke-linecap:butt;stroke-linejoin:miter;stroke-opacity:1;display:inline;filter:url(#filter3318)"
     d="m 338.72329,113.46728 2.90419,-4.79823 2.14657,-2.77792 2.0203,-2.65165 2.39911,-2.65165 2.27285,-2.272836 2.39911,-2.39911 3.03046,-2.90419 2.52538,-2.02031 3.6095,-2.52538 4.34545,-2.65165 3.6618,-1.89404 3.53554,-1.51523 4.16688,-1.64149 3.27402,-1.04713 4.31742,-1.33032 4.65659,-1.28436 4.67193,-0.88388 5.05076,-0.63134 5.17703,-0.25254 3.6618,-0.12627 3.53554,0 3.33529,0.23721 2.59935,0.26786 1.6415,0.50508 -0.75761,0.75761 -3.40927,1.01016 -3.40926,1.13642 -3.15673,0.88388 -3.28299,1.13642 -2.90419,0.88389 -3.53554,1.38896 -4.92449,1.76776 -5.05073,1.76777 -5.05071,2.02031 -4.92449,1.89403 -3.78807,1.38896 -3.31998,1.46293 -3.62482,1.6938 -3.9883,2.00498 -3.71411,2.03563 -4.04061,2.525376 -4.04061,2.65165 -4.04061,2.52538 -3.89902,2.45776 -4.43474,3.22435 -2.0203,1.6415 z"
     id="path5953"
     inkscape:connector-curvature="0"
     sodipodi:nodetypes="cccccccccccccccccccccccccccccccccccccccccccccccc"
     transform="matrix(0.53817287,0,0,0.50475593,130.22957,13.450389)" /><path
     style="fill:#ffffff;fill-opacity:1;stroke:#000000;stroke-width:1px;stroke-linecap:butt;stroke-linejoin:miter;stroke-opacity:1;display:inline;filter:url(#filter3318)"
     d="m 374.05075,-10.940526 -0.25254,1.1364201 0.61602,2.78427 c 0,0 0.19858,0.53522 0.89921,3.52919 0.74229,3.17204003 1.26269,4.92449 1.26269,4.92449 l 0.70531,2.5407 c 0,0 0.97316,2.63633 0.97316,3.14141 0,0.50508 0.84691,2.9041899 0.84691,2.9041899 l 0.88388,3.53553 0.75762,2.90419 0.88388,3.283 0.88388,3.40926 1.01015,3.283 1.22569,4.11457 1.29967,3.46157 1.51522,3.91434 1.13642,3.40927 1.5522,3.67712 1.47825,3.26768 1.89404,3.53553 1.38896,2.65166 1.51523,3.15672 1.76777,3.283 1.51522,2.77792 1.51523,2.77792 1.01016,1.76776 1.26269,1.13643 2.52538,-0.12627 c 0,0 2.52538,-0.37881 3.91434,-0.37881 1.38896,0 2.90419,-0.12627 2.90419,-0.12627 l 1.89403,-0.12627 1.51523,0 -1.26269,-2.14657 -1.6415,-2.52538 -1.62617,-2.52539 -1.53055,-2.39911 -1.57388,-2.42077 -2.25117,-3.68347 -1.93104,-3.33531 -1.83539,-3.37228 -1.76777,-3.58783 -1.75243,-3.92966 -1.33666,-3.35697 -1.31499,-3.84037 -1.13642,-3.40927 -1.01016,-3.03045 -1.01015,-3.283 -0.88388,-2.90419 -1.26269,-4.54568 -0.90555,-3.30466 -1.11476,-4.6502899 -1.01015,-4.04061 -0.88388,-3.28299997 -0.88388,-2.86721003 -0.63134,-3.44624 -0.3788,-2.27285 -0.12627,-1.1364201 -0.88388,-1.01015 -3.66178,0 -2.02031,-0.12627 -2.52538,0 -1.38896,0 z"
     id="path5955"
     inkscape:connector-curvature="0"
     sodipodi:nodetypes="cccsccscccccccccccccccccccccscccccccccccccccccccccccccccccccccc"
     transform="matrix(0.53817287,0,0,0.50475593,130.22957,13.450389)" /></g><g
   id="Layer_3"
   display="none"
   style="display:none"
   transform="translate(0,-509.27502)">
	<rect
   x="-3.6659999"
   y="-42.667"
   display="inline"
   width="751"
   height="518"
   id="rect5"
   style="fill:#8a644a;display:inline" />
</g>
<g
   id="Layer_2"
   display="none"
   style="display:none"
   transform="translate(0,-509.27502)">
	<rect
   x="36.318001"
   y="160.65601"
   display="inline"
   width="680.315"
   height="93.344002"
   id="rect8"
   style="fill:none;stroke:#2e4160;display:inline" />
</g>



<g
   inkscape:groupmode="layer"
   id="layer4"
   inkscape:label="Highlight (Below Text)"
   sodipodi:insensitive="true"><path
     d="m 17.837438,4.37061 c -7.585625,0 -17.55876954,23.148619 -13.5278241,51.871329 0,0 141.8678161,-11.30621 254.7342861,-11.30621 0.18998,-28.33256 16.61862,-41.024379 21.48209,-40.565119 -23.20708,0 -262.688552,0 -262.688552,0 z"
     id="path78-4-3"
     style="opacity:0.4;fill:#ffffff;fill-opacity:1"
     sodipodi:nodetypes="ccccc" /><path
     d="m 622.79627,4.37061 c 7.58562,0 16.24772,30.135589 12.82735,51.760019 0,0 -141.16734,-11.1949 -254.03381,-11.1949 -1.2649,-17.58338 -7.48181,-34.306139 -21.48209,-40.565119 23.20708,0 262.68855,0 262.68855,0 z"
     id="path78-4-3-1"
     style="opacity:0.4;fill:#ffffff;fill-opacity:1"
     sodipodi:nodetypes="ccccc" /></g><g
   inkscape:groupmode="layer"
   id="layer3"
   inkscape:label="HIDE Text"
   style="display:none"
   sodipodi:insensitive="true"><g
     transform="scale(1.1359679,0.88030657)"
     style="font-size:59.21337128px;font-style:normal;font-weight:normal;fill:#000000;fill-opacity:1;stroke:none;font-family:DejaVu Sans;-inkscape-font-specification:DejaVu Sans"
     id="text3592"><path
       d="m 70.424525,27.263229 30.040375,0 0,8.413619 -18.908956,0 0,8.037752 17.78136,0 0,8.413619 -17.78136,0 0,18.301789 -11.131419,0 z"
       style="font-variant:normal;font-weight:bold;font-stretch:normal;font-family:DejaVu Sans;-inkscape-font-specification:DejaVu Sans Bold"
       id="path5327" /><path
       d="m 110.90241,27.263229 11.13142,0 0,34.75316 19.54504,0 0,8.413619 -30.67646,0 z"
       style="font-variant:normal;font-weight:bold;font-stretch:normal;font-family:DejaVu Sans;-inkscape-font-specification:DejaVu Sans Bold"
       id="path5329" /><path
       d="m 142.59082,27.263229 12.17228,0 9.83034,15.381598 9.83035,-15.381598 12.20119,0 -16.45137,24.980641 0,18.186138 -11.13142,0 0,-18.186138 z"
       style="font-variant:normal;font-weight:bold;font-stretch:normal;font-family:DejaVu Sans;-inkscape-font-specification:DejaVu Sans Bold"
       id="path5331" /></g><g
     transform="scale(1.168322,0.85592841)"
     style="font-size:58.69818497px;font-style:normal;font-weight:normal;fill:#000000;fill-opacity:1;stroke:none;font-family:DejaVu Sans;-inkscape-font-specification:DejaVu Sans"
     id="text3592-8"><path
       d="m 410.98632,30.160661 0,9.056947 c -2.35025,-1.050878 -4.64315,-1.843838 -6.87869,-2.378882 -2.2356,-0.534974 -4.34698,-0.802479 -6.33413,-0.802514 -2.63685,3.5e-5 -4.58582,0.363077 -5.84689,1.089126 -1.26111,0.726118 -1.89166,1.853459 -1.89164,3.382025 -2e-5,1.146479 0.42512,2.039752 1.27542,2.679824 0.85027,0.640128 2.3932,1.189468 4.62879,1.64802 l 4.70044,0.945821 c 4.75773,0.955399 8.13975,2.407566 10.14607,4.356506 2.00625,1.948982 3.00939,4.719564 3.00943,8.311754 -4e-5,4.719557 -1.39966,8.230553 -4.19887,10.533 -2.79928,2.302452 -7.07457,3.453676 -12.8259,3.453677 -2.71328,-10e-7 -5.43609,-0.257951 -8.16844,-0.773853 -2.73238,-0.515901 -5.46475,-1.2802 -8.19711,-2.292898 l 0,-9.314897 c 2.73236,1.452179 5.37397,2.546081 7.92482,3.28171 2.55084,0.735645 5.01092,1.103464 7.38027,1.103457 2.40752,7e-6 4.25139,-0.40125 5.53162,-1.203771 1.28017,-0.802505 1.92027,-1.948953 1.9203,-3.439347 -3e-5,-1.337511 -0.43473,-2.369314 -1.30409,-3.095412 -0.86941,-0.726069 -2.60342,-1.375723 -5.20201,-1.948963 l -4.27052,-0.945821 c -4.28009,-0.91714 -7.40894,-2.378861 -9.38655,-4.385167 -1.97763,-2.006261 -2.96644,-4.709967 -2.96644,-8.111126 0,-4.260934 1.37573,-7.537864 4.12722,-9.8308 2.75146,-2.292855 6.70671,-3.439303 11.86574,-3.439346 2.3502,4.3e-5 4.76729,0.176787 7.25129,0.530232 2.48394,0.353531 5.0539,0.883763 7.70987,1.590698 z"
       style="font-variant:normal;font-weight:bold;font-stretch:normal;font-family:DejaVu Sans;-inkscape-font-specification:DejaVu Sans Bold"
       id="path5320" /><path
       d="m 423.51128,28.813584 11.03457,0 0,42.791206 -11.03457,0 z"
       style="font-variant:normal;font-weight:bold;font-stretch:normal;font-family:DejaVu Sans;-inkscape-font-specification:DejaVu Sans Bold"
       id="path5322" /><path
       d="m 445.40845,28.813584 14.044,0 9.74482,22.900317 9.80214,-22.900317 14.01533,0 0,42.791206 -10.43268,0 0,-31.298056 -9.85946,23.072285 -6.99334,0 -9.85946,-23.072285 0,31.298056 -10.46135,0 z"
       style="font-variant:normal;font-weight:bold;font-stretch:normal;font-family:DejaVu Sans;-inkscape-font-specification:DejaVu Sans Bold"
       id="path5324" /></g></g><g
   style="display:inline"
   inkscape:label="SHOW Text (as paths)"
   id="g5309"
   inkscape:groupmode="layer"><g
     transform="scale(1.1359679,0.88030657)"
     style="font-size:59.21337128px;font-style:normal;font-weight:normal;fill:#000000;fill-opacity:1;stroke:none;font-family:DejaVu Sans;-inkscape-font-specification:DejaVu Sans"
     id="text5311"><path
       d="m 70.424525,27.263229 30.040375,0 0,8.413619 -18.908956,0 0,8.037752 17.78136,0 0,8.413619 -17.78136,0 0,18.301789 -11.131419,0 z"
       style="font-variant:normal;font-weight:bold;font-stretch:normal;font-family:DejaVu Sans;-inkscape-font-specification:DejaVu Sans Bold"
       id="path5334" /><path
       d="m 110.90241,27.263229 11.13142,0 0,34.75316 19.54504,0 0,8.413619 -30.67646,0 z"
       style="font-variant:normal;font-weight:bold;font-stretch:normal;font-family:DejaVu Sans;-inkscape-font-specification:DejaVu Sans Bold"
       id="path5336" /><path
       d="m 142.59082,27.263229 12.17228,0 9.83034,15.381598 9.83035,-15.381598 12.20119,0 -16.45137,24.980641 0,18.186138 -11.13142,0 0,-18.186138 z"
       style="font-variant:normal;font-weight:bold;font-stretch:normal;font-family:DejaVu Sans;-inkscape-font-specification:DejaVu Sans Bold"
       id="path5338" /></g><g
     transform="scale(1.168322,0.85592841)"
     style="font-size:58.69818497px;font-style:normal;font-weight:normal;fill:#000000;fill-opacity:1;stroke:none;font-family:DejaVu Sans;-inkscape-font-specification:DejaVu Sans"
     id="text5315"><path
       d="m 410.98632,30.160661 0,9.056947 c -2.35025,-1.050878 -4.64315,-1.843838 -6.87869,-2.378882 -2.2356,-0.534974 -4.34698,-0.802479 -6.33413,-0.802514 -2.63685,3.5e-5 -4.58582,0.363077 -5.84689,1.089126 -1.26111,0.726118 -1.89166,1.853459 -1.89164,3.382025 -2e-5,1.146479 0.42512,2.039752 1.27542,2.679824 0.85027,0.640128 2.3932,1.189468 4.62879,1.64802 l 4.70044,0.945821 c 4.75773,0.955399 8.13975,2.407566 10.14607,4.356506 2.00625,1.948982 3.00939,4.719564 3.00943,8.311754 -4e-5,4.719557 -1.39966,8.230553 -4.19887,10.533 -2.79928,2.302452 -7.07457,3.453676 -12.8259,3.453677 -2.71328,-10e-7 -5.43609,-0.257951 -8.16844,-0.773853 -2.73238,-0.515901 -5.46475,-1.2802 -8.19711,-2.292898 l 0,-9.314897 c 2.73236,1.452179 5.37397,2.546081 7.92482,3.28171 2.55084,0.735645 5.01092,1.103464 7.38027,1.103457 2.40752,7e-6 4.25139,-0.40125 5.53162,-1.203771 1.28017,-0.802505 1.92027,-1.948953 1.9203,-3.439347 -3e-5,-1.337511 -0.43473,-2.369314 -1.30409,-3.095412 -0.86941,-0.726069 -2.60342,-1.375723 -5.20201,-1.948963 l -4.27052,-0.945821 c -4.28009,-0.91714 -7.40894,-2.378861 -9.38655,-4.385167 -1.97763,-2.006261 -2.96644,-4.709967 -2.96644,-8.111126 0,-4.260934 1.37573,-7.537864 4.12722,-9.8308 2.75146,-2.292855 6.70671,-3.439303 11.86574,-3.439346 2.3502,4.3e-5 4.76729,0.176787 7.25129,0.530232 2.48394,0.353531 5.0539,0.883763 7.70987,1.590698 z"
       style="font-variant:normal;font-weight:bold;font-stretch:normal;font-family:DejaVu Sans;-inkscape-font-specification:DejaVu Sans Bold"
       id="path5341" /><path
       d="m 423.51128,28.813584 11.03457,0 0,42.791206 -11.03457,0 z"
       style="font-variant:normal;font-weight:bold;font-stretch:normal;font-family:DejaVu Sans;-inkscape-font-specification:DejaVu Sans Bold"
       id="path5343" /><path
       d="m 445.40845,28.813584 14.044,0 9.74482,22.900317 9.80214,-22.900317 14.01533,0 0,42.791206 -10.43268,0 0,-31.298056 -9.85946,23.072285 -6.99334,0 -9.85946,-23.072285 0,31.298056 -10.46135,0 z"
       style="font-variant:normal;font-weight:bold;font-stretch:normal;font-family:DejaVu Sans;-inkscape-font-specification:DejaVu Sans Bold"
       id="path5345" /></g></g><g
   inkscape:label="Highlight (Above Text)"
   id="g4948"
   inkscape:groupmode="layer"
   sodipodi:insensitive="true"><path
     sodipodi:nodetypes="ccccc"
     style="opacity:0.2;fill:#ffffff;fill-opacity:1"
     id="path4950"
     d="m 17.837438,4.37061 c -7.585625,0 -17.55876954,23.148619 -13.5278241,51.871329 0,0 141.8678161,-11.30621 254.7342861,-11.30621 0.18998,-28.33256 16.61862,-41.024379 21.48209,-40.565119 -23.20708,0 -262.688552,0 -262.688552,0 z" /><path
     sodipodi:nodetypes="ccccc"
     style="opacity:0.1;fill:#ffffff;fill-opacity:1"
     id="path4952"
     d="m 622.79627,4.37061 c 7.58562,0 16.24772,30.135589 12.82735,51.760019 0,0 -141.16734,-11.1949 -254.03381,-11.1949 -1.2649,-17.58338 -7.48181,-34.306139 -21.48209,-40.565119 23.20708,0 262.68855,0 262.68855,0 z" /></g><g
   inkscape:groupmode="layer"
   id="layer6"
   inkscape:label="Swift Logo" /></svg>