<?xml version="1.0" encoding="UTF-8" standalone="no"?>
<!-- Created with Inkscape (http://www.inkscape.org/) -->

<svg
   xmlns:osb="http://www.openswatchbook.org/uri/2009/osb"
   xmlns:dc="http://purl.org/dc/elements/1.1/"
   xmlns:cc="http://creativecommons.org/ns#"
   xmlns:rdf="http://www.w3.org/1999/02/22-rdf-syntax-ns#"
   xmlns:svg="http://www.w3.org/2000/svg"
   xmlns="http://www.w3.org/2000/svg"
   xmlns:sodipodi="http://sodipodi.sourceforge.net/DTD/sodipodi-0.dtd"
   xmlns:inkscape="http://www.inkscape.org/namespaces/inkscape"
   width="173"
   height="173"
   id="svg3263"
   version="1.1"
   inkscape:version="0.48.4 r9939"
   sodipodi:docname="logo_white.svg"
   enable-background="new"
   inkscape:export-filename="F:\XCS\xcsoar\Data\graphics\xcsoarswiftsplash.png"
   inkscape:export-xdpi="90"
   inkscape:export-ydpi="90">
  <sodipodi:namedview
     id="base"
     pagecolor="#ffffff"
     bordercolor="#666666"
     borderopacity="1.0"
     inkscape:pageopacity="0.0"
     inkscape:pageshadow="2"
     inkscape:zoom="2.56"
     inkscape:cx="109.44404"
     inkscape:cy="104.9095"
     inkscape:document-units="px"
     inkscape:current-layer="layer3"
     showgrid="false"
     inkscape:window-width="1600"
     inkscape:window-height="800"
     inkscape:window-x="0"
     inkscape:window-y="0"
     inkscape:window-maximized="1">
    <inkscape:grid
       id="grid4350"
       type="xygrid" />
  </sodipodi:namedview>
  <defs
     id="defs3265">
    <linearGradient
       osb:paint="solid"
       id="linearGradient5333">
      <stop
         id="stop5335"
         offset="0"
         style="stop-color:#000000;stop-opacity:1;" />
    </linearGradient>
    <filter
       id="filter3318"
       inkscape:collect="always">
      <feBlend
         id="feBlend3320"
         in2="BackgroundImage"
         mode="lighten"
         inkscape:collect="always" />
    </filter>
    <clipPath
       id="clipPath3328"
       clipPathUnits="userSpaceOnUse">
      <path
         inkscape:connector-curvature="0"
         id="path3330"
         d="m 72.321428,883.96932 6.428575,1.07143 11.42857,3.57143 25.714287,9.10714 16.25,8.75 13.21429,10.53571 12.85714,13.21429 11.07143,13.03571 -4.10714,4.10715 -17.5,18.92857 -11.25,14.99999 -8.03572,13.39286 -4.82143,9.2857 -4.10714,8.2143 -0.35714,1.6071 1.78571,3.2143 3.21429,6.4286 2.67857,8.5714 1.78571,6.6072 -0.17857,3.9285 -2.85714,-0.7142 -3.75,-6.25 -5.71429,-6.6072 -5.53571,-5.8928 -8.57143,-8.2143 -6.785717,-5.8929 -10.71429,-8.5714 -8.92857,-6.60716 -9.107142,-5.71428 L 56.25,982.00503 46.071428,977.1836 37.5,973.61218 l -8.035715,-3.21429 -10,-3.92857 -11.2499992,-3.21429 -6.071429,-1.96428 0,-1.25 0.178572,-2.14286 29.9999992,0 1.428572,-0.17857 5.357143,-8.39286 8.75,-12.85714 8.75,-13.57143 5.357143,-12.14286 4.821428,-11.42857 2.5,-8.03571 z"
         style="fill:none;stroke:#000000;stroke-width:1px;stroke-linecap:butt;stroke-linejoin:miter;stroke-opacity:1" />
    </clipPath>
  </defs>
  <metadata
     id="metadata3268">
    <rdf:RDF>
      <cc:Work
         rdf:about="">
        <dc:format>image/svg+xml</dc:format>
        <dc:type
           rdf:resource="http://purl.org/dc/dcmitype/StillImage" />
        <dc:title />
      </cc:Work>
    </rdf:RDF>
  </metadata>
  <g
     inkscape:label="Layer"
     id="layer3"
     inkscape:groupmode="layer"
     style="display:inline;opacity:1">
    <rect
       style="fill:#0000ff;fill-rule:evenodd;stroke:#000000;stroke-width:1.00596189px;stroke-linecap:butt;stroke-linejoin:miter;stroke-opacity:1"
       id="rect2993"
       width="172.84071"
       height="184.62946"
       x="201.09161"
       y="-14.009077" />
  </g>
  <g
     style="display:inline;filter:url(#filter3318)"
     transform="translate(0,-879.36218)"
     id="layer1"
     inkscape:groupmode="layer"
     inkscape:label="hat background">
    <path
       transform="translate(0,879.36218)"
       inkscape:connector-curvature="0"
       id="path3162"
       d=""
       style="fill:#ff0000;fill-opacity:1;stroke:#000000;stroke-width:0.35714287;stroke-miterlimit:4;stroke-opacity:1;stroke-dasharray:none" />
    <path
       inkscape:connector-curvature="0"
       id="path4931"
       d="m 97.93424,881.3013 -4.125006,0.1875 -2.99999,0.21875 -3.65625,0.5 -3.8125,0.6875 -6.53125,1.28125 -5.875,1.21875 -4.46875,1.25 -4.718753,1.46875 -4.125,1.5 -3.09375,1.0625 -2.71875,1.1875 -3.21875,1.46875 -3.625,2.15625 -3.65625,2.125 -3.15625,1.9375 -4.46875,2.96875 -3,2 -1.375,1.09375 -1.34375,1.125 -2.5,1.75 -3.46875,2.75 -1.96875,1.71875 -4.5,3.96875 -3.46875,3 -1.96875,1.96875 -3.499999,3.5 -3.4062503,3.34375 -3.78125,3.84375 -0.5625,0.5 0.6875,0.875 1.21875,1.9375 1.5,2.375 2.03125,3.15625 1.9375003,2.8125 2.0625,3.25 1.749999,2.40625 1.46875,2.0625 1.90625,3 1.5,2.375 1.84375,2.87498 1.5625,2.6563 2.21875,3.6562 2.53125,4.8438 2.25,4.6875 2.0625,4.6562 2.25,5.4063 1.9375,5.0625 1.75,4.2187 2.09375,5.56247 2.3125,5.5625 0.71875,2.1563 2.03125,4.8437 1.5625,4.0313 0,1.1562 -1.40625,3.0625 -11.40625,18.7813 -1.15625,2.3125 -1.03125,2.8437 -0.625,2.75 -0.4375,2.125 2.03125,-1.8437 3.84375,-3.6875 2.90625,-2.7188 2.1875,-1.9375 2.8125,-2.5625 2.1875,-1.75 2.375,-1.9375 2.65625,-2.0937 2.71875,-2.125 2.09375,-1.5625 2.375,-1.5938 2.28125,-1.6562 2.8125,-2.0313 2.625,-1.8437 2.8125,-1.8438 3.000003,-2 3.84375,-2.4687 3.875,-2.1875 4.03125,-2.2188 3.625,-2.1875 3.59375,-1.8437 3.25,-1.5625 2.96875,-1.5 2.65624,-1.1563 3.312506,-1.4687 2.375,-1.06247 3,-1.15627 3.9375,-1.4062 3,-1.03133 2.28125,-0.8125 2.71875,-0.7812 2.09375,-0.625 3.09375,-1.125 2.90625,-0.7188 2,-0.6875 3,-0.7812 3.0625,-0.8125 3.25,-0.7813 3.875,-0.7812 3.9375,-0.8125 5.3125,-0.9375 2.96875,-0.5 3.96875,-0.6563 3.5,-0.3437 2.21875,-0.25 2.5,-0.062 2.46875,0.062 2.5,0 -1.625,-1.1563 -3.125,-1.9687 c 0,0 -2.93717,-1.5002 -4.125,-1.9688 -1.44594,-0.5703 -4.0625,-1.5937 -4.0625,-1.5937 l -3.90625,-1.3125 -2.28125,-0.6875 -2.5,-0.5625 -2.40625,-0.5 -2.90625,-0.4375 -3.125,-0.5 -1,-1.4688 -1.625,-2.75 c 0,0 -1.2346,-1.61882 -1.79337,-2.4687 -0.898,-1.36587 -2.5,-4.2188 -2.5,-4.2188 l -2.21875,-3.96873 -2.25,-4.71875 -2.21875,-4.25 -1.25,-2.71875 -1.75,-3.96875 -1.46875,-3.4375 -1.75,-4.53125 -1.5,-4.21875 -1.46875,-4.96875 -1.25,-3.96875 -0.75,-2.46875 -1.125,-3.6875 -1.375,-4.65625 -0.96875,-4.34375 -0.90625,-3.3125 c 0,0 -0.71755,-3.25265 -1.09375,-4.875 -0.34357,-1.48166 -0.70677,-2.95871 -1.0625,-4.4375 -0.30076,-1.25032 -0.5981,-2.50148 -0.90625,-3.75 -0.3269,-1.32452 -0.80038,-3.96875 -0.80038,-3.96875 l -0.5,-2.5 -0.5,-2.71875 -2.84375,-0.1875 z m -9.824613,11.5625 1.40625,0 2.53124,0 2,0.125 5.656253,0 0.90625,1 0.125,1.15625 0.375,2.28125 0.625,3.4375 0.875,2.875 0.90625,3.28125 1,4.03125 1.125,4.65625 0.90625,3.28125 1.25,4.5625 0.875,2.90625 1.03125,3.28125 1,3.03125 1.125,3.40625 1.3125,3.84375 1.34375,3.34375 1.75,3.9375 1.78125,3.59375 1.84375,3.375 1.90625,3.34375 2.25,3.65623 1.59375,2.4375 1.53125,2.4063 1.625,2.5 1.625,2.5312 1.28125,2.1563 -1.53125,0 -1.875,0.125 c 0,0 -1.51729,0.125 -2.90625,0.125 -1.38896,0 -3.9375,0.375 -3.9375,0.375 l -4.5,0.125 -1.28125,-1.125 -1,-1.7813 -1.53125,-2.7812 -1.5,-2.7813 -1.78125,-3.2812 -1.5,-3.15628 -1.40625,-2.625 -1.875,-3.5625 -1.5,-3.25 -1.53125,-3.6875 c 0,0 -0.74855,-2.27864 -1.15625,-3.40625 -0.47426,-1.31168 -1.0032,-2.60294 -1.5,-3.90625 -0.44034,-1.15517 -0.91833,-2.29702 -1.3125,-3.46875 -0.45714,-1.35893 -1.21875,-4.125 -1.21875,-4.125 l -1.000007,-3.28125 -0.874996,-3.40625 -0.90625,-3.28125 -0.75,-2.90625 -0.875,-3.53125 c 0,0 -0.84375,-2.40117 -0.84375,-2.90625 0,-0.50507 -0.99999,-3.125 -0.99999,-3.125 l -0.6875,-2.5625 c 0,0 -0.50771,-1.7342 -1.25,-4.90625 -0.70063,-2.99397 -0.90625,-3.53125 -0.90625,-3.53125 l -0.625,-2.78125 0.25,-1.15625 z m -57.362886,28.34375 1.40625,2.53125 2,3.28125 2.53125,4.28125 2.03125,3.03125 3.53125,5.6875 2.40625,4.1875 2.375,4.53125 2.53125,4.53125 2.40625,4.6875 2.40625,4.65628 2.28125,4.4375 1.875,4.1562 2.28125,4.875 2.125,4.3438 2.53125,4.8125 2.375003,4.6875 -2.343753,1.4375 -2.21875,1.125 -2.84375,1.5937 -2.15625,1.625 -1,-3.0312 -1.65625,-4.2813 -0.875,-2.5312 -1,-2.9063 -1.65625,-3.7812 -1.625,-4.0313 -1.90625,-3.8125 -1.53125,-3.4062 -1.625,-3.1563 -1.78125,-3.6562 -2.25,-4.40628 -1.40625,-2.65625 -2.125,-3.9375 -2.28125,-3.90625 -1.78125,-3.15625 -1.40625,-2.5 -1.375,-2.28125 -1.125,-2.28125 -1.40625,-2.40625 -1.5,-2.40625 -1.90625,-2.5 -1.25,-1.90625 2.90625,-2.90625 2.53125,-2.28125 z m -9.6875,8 1.40625,2.53125 2,3.28125 2.53125,4.28125 2.03125,3.03125 3.34375,5.5 2.59375,4.375 2.375,4.53125 2.53125,4.53123 2.40625,4.6875 2.40625,4.6563 2.25,4.4375 1.90625,4.1562 1.375,3.7813 1.78125,4.1875 1.65625,3.9062 1.375,3.9063 0.875,2.65623 -2.78125,2.65624 -2.375,1.7812 -2.15625,1.625 -1,-3.0312 -1.65625,-4.28127 -0.875,-2.5312 -1.03125,-2.9063 -1.625,-3.7812 -1.65625,-4.0313 -1.875,-3.8125 -1.53125,-3.4062 -1.625,-3.1563 -1.78125,-3.6562 -2.28125,-4.4063 -1.375,-2.6562 -2.125,-4.03128 -2.28125,-3.8125 -1.78125,-3.15625 -1.3125,-2.59375 -1.1875,-2.28125 -1.40625,-2.1875 -1.40625,-2.40625 -1.5,-2.40625 -1.90625,-2.5 -1.25,-1.90625 2.90625,-2.90625 2.53125,-2.28125 z m 102.999999,50.68748 3.53125,0 3.34375,0.25 2.59375,0.25 1.65625,0.5 -0.78125,0.7813 -3.40625,1 -3.40625,1.125 -3.15625,0.9062 -3.28125,1.125 -2.90625,0.875 -3.53125,1.4063 -4.9375,1.75 -5.03125,1.7812 -5.0625,2.0313 -4.906256,1.875 -3.81249,1.40623 -3.3125,1.4375 -3.625,1.71874 -3.96875,2 -3.71875,2.0312 -4.0625,2.5313 -4.03125,2.6562 -4.031253,2.5 -3.90625,2.4688 -4.4375,3.2187 -2.03125,1.6563 0.40625,-1.0313 2.90625,-4.7812 2.125,-2.7813 2.03125,-2.6562 2.40625,-2.6563 2.250003,-2.25 2.40625,-2.4062 3.03125,-2.90624 2.53125,-2.03123 3.59375,-2.5313 4.375,-2.625 3.65625,-1.9062 3.53125,-1.5313 4.15625,-1.625 3.281236,-1.0625 4.31251,-1.3125 4.65625,-1.2812 4.6875,-0.9063 5.03125,-0.625 5.1875,-0.25 z"
       style="fill:#ffffff;fill-opacity:1;stroke:#ffffff;stroke-width:0.98354685px;stroke-linecap:butt;stroke-linejoin:miter;stroke-opacity:1"
       sodipodi:nodetypes="cccccccccccccccccccccccccccccccccccccccccccccccccccccccccccccccccccccccccccccccccccccccccccccccccccccccccccccccccccccccccsccccccccccccccccsssccccccccccccccccccccccccccccccccccccccsccccccccccccsssccccccsccscccccccccccccccccccccccccccccccccccccccccccccccccccccccccccccccccccccccccccccccccccccccccccccccccccccccccccccccccccccccccccccccccccccccccccccccc" />
    <path
       style="fill:#ffffff;fill-opacity:1;stroke:#ffffff;stroke-width:1px;stroke-linecap:butt;stroke-linejoin:miter;stroke-opacity:1"
       d="m 251.71845,873.99106 c 0,0.87608 0,1.75217 0,2.62826 0,0.21902 0,0.43804 0,0.65706 0,0.21902 0.21903,0.65707 0,0.65707 -0.21902,0 0,-0.87609 0,-0.65707 0,0.65707 0,1.31413 0,1.9712 0,1.75217 0,3.50435 0,5.25652 0,0.30981 -0.0298,3.25555 0,3.28533 0.15488,0.15487 0.46117,-0.098 0.65707,0 3.00713,1.50357 -2.7882,-0.27233 1.9712,1.31413 0.5141,0.17137 1.31413,-0.27502 1.31413,0 0,0.21902 -0.65707,-0.21902 -0.65707,0 0,0.30975 0.51855,0.38002 0.65707,0.65707 0.20649,0.41298 -0.20649,2.21528 0,2.62826 0.13852,0.27704 0.51854,0.38002 0.65706,0.65706 0.0979,0.1959 -0.15487,0.5022 0,0.65707 0.15487,0.15487 0.5022,-0.15487 0.65707,0 0.15811,0.15811 -0.15811,2.47015 0,2.62826 0.15487,0.15487 0.50219,-0.15487 0.65706,0 0.23065,0.23064 -0.22692,2.83147 0,3.28533 0.13853,0.27704 0.51855,0.38002 0.65707,0.65707 0.0979,0.19589 -0.15487,0.50219 0,0.65706 0.87609,0.87609 0.65707,-1.09511 0.65707,0.65707 0,0.21902 0.21902,0.65706 0,0.65706 -0.21903,0 0,-0.87609 0,-0.65706 0,0.43804 0,0.87608 0,1.31413 0,0.21902 -0.15488,0.50219 0,0.65706 0.15487,0.15487 0.50219,-0.15487 0.65706,0 0.15487,0.15487 0.21902,0.65707 0,0.65707 -0.21902,0 0,-0.87609 0,-0.65707 0,1.53316 0,3.06631 0,4.59946 0,0.29592 -0.1,1.77123 0,1.9712 0.13852,0.27704 0.51854,0.38002 0.65707,0.65706 0.45316,0.90633 -0.79575,0.58773 0.65706,1.31413 0.1959,0.0979 0.5022,-0.15487 0.65707,0 0.30974,0.30975 -0.1959,0.92234 0,1.31414 1.36727,2.73454 -0.0454,-0.70243 1.31413,0.65706 0.15487,0.15487 -0.15487,0.50219 0,0.65707 0.15487,0.15487 0.50219,-0.15488 0.65706,0 0.15488,0.15487 -0.098,0.46116 0,0.65706 0.35317,0.70633 0.96097,1.26487 1.31413,1.9712 0.1995,0.39898 -0.19949,3.54341 0,3.94239 0.13853,0.27704 0.51855,0.38002 0.65707,0.65707 0.0979,0.1959 0,0.43804 0,0.65706 0.21902,0.21902 0.51854,0.38002 0.65707,0.65707 0.19589,0.3918 -0.30975,1.00438 0,1.31413 0.15487,0.15487 0.50219,-0.15487 0.65706,0 0.32853,0.32853 -0.32853,1.64266 0,1.97119 0.15487,0.15488 0.50219,-0.15487 0.65707,0 0.15487,0.15488 0,0.43805 0,0.65707 0,0.21902 0,0.43804 0,0.65707 0,0.21902 0,0.87608 0,0.65706 0,-0.43804 -0.43805,-1.31413 0,-1.31413 1.2329,0 0.3541,2.98237 0.65706,3.28533 0.15487,0.15487 0.65707,-0.21902 0.65707,0 0,0.21902 -0.65707,-0.21902 -0.65707,0 0,0.30974 0.51855,0.38002 0.65707,0.65706 0.1959,0.3918 -0.30975,1.00439 0,1.31413 0.15487,0.15488 0.50219,-0.15487 0.65706,0 0.32854,0.32854 -0.32853,1.64267 0,1.9712 0.15487,0.15487 0.5022,-0.15487 0.65707,0 0.15487,0.15487 -0.15487,0.50219 0,0.65707 0.15487,0.15487 0.50219,-0.15488 0.65706,0 0.15488,0.15487 -0.15487,0.50219 0,0.65706 0.15488,0.15487 0.5022,-0.15487 0.65707,0 0.30974,0.30975 -0.30974,1.00439 0,1.31413 0.30974,0.30975 1.00439,-0.30974 1.31413,0 0.15487,0.15487 -0.15487,0.5022 0,0.65707 0.15487,0.15487 0.65707,-0.21902 0.65707,0 0,0.21902 -0.65707,-0.21902 -0.65707,0 0,0.30974 0.51854,0.38002 0.65707,0.65706 0.0979,0.1959 -0.15488,0.5022 0,0.65707 0.15487,0.15487 0.50219,-0.15487 0.65706,0 0.30975,0.30974 -0.30974,1.00439 0,1.31413 1.35949,1.35949 -0.0531,-2.07748 1.31413,0.65707 0.0979,0.19589 0.21902,0.65706 0,0.65706 -0.21902,0 -0.15487,-0.81194 0,-0.65706 0.34631,0.3463 0.3854,0.90663 0.65707,1.31413 -0.0656,1.30168 0.96782,0.31076 1.31413,0.65706 0.15487,0.15487 -0.0979,0.46117 0,0.65707 1.36727,2.73455 -0.0454,-0.70243 1.31413,0.65706 0.15487,0.15488 -0.15487,0.5022 0,0.65707 0.15487,0.15487 0.50219,-0.15487 0.65707,0 0.15487,0.15487 -0.15488,0.50219 0,0.65706 0.15487,0.15488 0.46116,-0.0979 0.65706,0 0.55409,0.27705 0.76005,1.03709 1.31413,1.31414 0.1959,0.0979 0.5022,-0.15488 0.65707,0 0.15487,0.15487 -0.15487,0.50219 0,0.65706 0.15487,0.15487 0.50219,-0.15487 0.65706,0 0.15487,0.15487 0,0.43804 0,0.65707 0,0.21902 0.0979,0.46116 0,0.65706 -0.13852,0.27704 -0.38002,0.51855 -0.65706,0.65707 -0.1959,0.0979 -0.5022,-0.15487 -0.65707,0 -0.15487,0.15487 0,0.43804 0,0.65706 0,0.65707 0,1.31413 0,1.9712 0,0.21902 0,0.87609 0,0.65706 0,-0.43804 0,-1.75217 0,-1.31413 0,0.65707 0,1.31413 0,1.9712 0,0.21902 -0.15487,0.50219 0,0.65707 0.15487,0.15487 0.5022,-0.15488 0.65707,0 0.30974,0.30974 -0.1959,0.92233 0,1.31413 0.0855,0.17106 1.17071,0.80048 0.65706,1.31413 -0.15487,0.15487 -0.46116,-0.0979 -0.65706,0 -0.55409,0.27704 -0.76005,1.03709 -1.31413,1.31413 -0.1959,0.0979 -0.44929,-0.0693 -0.65707,0 -0.46461,0.15487 -0.84951,0.50219 -1.31413,0.65706 -0.39179,0.1306 -3.30578,0 -3.94239,0 -0.15936,0 -1.95007,0.0211 -1.9712,0 -0.15487,-0.15487 0.15487,-0.50219 0,-0.65706 -0.30974,-0.30974 -1.00439,0.30974 -1.31413,0 -0.15487,-0.15487 0.1959,-0.55912 0,-0.65707 -0.5877,-0.29385 -1.31413,0 -1.9712,0 -3.50435,0 -7.0087,0 -10.51304,0 -1.09511,0 -2.19022,0 -3.28533,0 -0.21902,0 -0.43805,0 -0.65707,0 -0.21902,0 -0.46116,0.098 -0.65706,0 -0.55409,-0.27704 -0.76005,-1.03708 -1.31413,-1.31413 -0.1959,-0.0979 -0.46117,0.0979 -0.65707,0 -0.27704,-0.13852 -0.43804,-0.43804 -0.65707,-0.65706 -0.21902,-0.21903 -0.43804,-0.43805 -0.65706,-0.65707 -0.21902,-0.21902 -0.43804,-0.43804 -0.65707,-0.65706 -0.21902,-0.21903 -0.38002,-0.51855 -0.65706,-0.65707 -0.1959,-0.0979 -0.5022,0.15487 -0.65707,0 -0.80029,-0.80029 -0.30778,-1.46802 -1.31413,-1.9712 -0.1959,-0.0979 -0.50219,0.15488 -0.65706,0 -0.15488,-0.15487 0.0693,-0.44928 0,-0.65706 -0.15488,-0.46462 -0.31077,-0.96783 -0.65707,-1.31413 -0.15487,-0.15487 -0.50219,0.15487 -0.65707,0 -0.3463,-0.34631 -0.3854,-0.90664 -0.65706,-1.31413 -0.17182,-0.25773 -0.51854,-0.38003 -0.65707,-0.65707 -0.45316,-0.90633 0.79575,-0.58773 -0.65706,-1.31413 -1.75218,0 0.21902,0.21902 -0.65707,-0.65707 -0.15487,-0.15487 -0.55911,0.1959 -0.65706,0 -0.1959,-0.39179 0.13852,-0.89856 0,-1.31413 -0.43585,-1.30752 -0.61326,-0.30663 -1.31413,-0.65706 -0.83763,-0.41882 -0.7806,-1.30429 -1.31413,-1.9712 -0.58049,-0.72561 -1.41366,-1.22781 -1.9712,-1.9712 -0.13141,-0.17521 0.12149,-0.47482 0,-0.65706 -0.34363,-0.51545 -0.92714,-0.83039 -1.31413,-1.31413 -0.43805,-0.65707 -0.87609,-1.31413 -1.31413,-1.9712 0,-0.21902 0.0979,-0.46116 0,-0.65706 -0.13852,-0.27705 -0.55912,-0.36322 -0.65707,-0.65707 -0.13852,-0.41556 0.13852,-0.89857 0,-1.31413 -0.68364,-2.05091 -0.43804,0.21902 -1.31413,-0.65707 -2.56435,-2.56435 0.15209,-0.35287 -0.65707,-1.97119 -0.27704,-0.55409 -0.9705,-0.79869 -1.31413,-1.31413 -0.27166,-0.4075 -0.3854,-0.90664 -0.65706,-1.31413 -0.17182,-0.25773 -0.51855,-0.38003 -0.65707,-0.65707 -0.0979,-0.1959 0.0979,-0.46117 0,-0.65707 -0.27704,-0.55408 -1.03709,-0.76004 -1.31413,-1.31413 -0.0979,-0.1959 0.0979,-0.46116 0,-0.65706 -0.13852,-0.27704 -0.51854,-0.38002 -0.65706,-0.65707 -0.0979,-0.1959 0,-0.43804 0,-0.65706 -0.21903,-0.43805 -0.38541,-0.90664 -0.65707,-1.31413 -0.8015,-1.20226 -0.83772,-0.0656 -1.31413,-1.9712 -0.10624,-0.42496 0.13852,-0.89857 0,-1.31413 -0.098,-0.29385 -0.48525,-0.39934 -0.65707,-0.65707 -0.27166,-0.40749 -0.50219,-0.84951 -0.65706,-1.31413 -0.0693,-0.20778 0.0979,-0.46116 0,-0.65706 -0.13852,-0.27705 -0.51855,-0.38003 -0.65707,-0.65707 -0.30974,-0.61949 -0.39983,-1.32812 -0.65706,-1.97119 -0.18189,-0.45472 -0.5022,-0.84952 -0.65707,-1.31414 -0.0693,-0.20778 0.0693,-0.44928 0,-0.65706 -0.15487,-0.46462 -0.53828,-0.83901 -0.65706,-1.31413 -0.10624,-0.42497 0.10624,-0.88917 0,-1.31413 -0.11878,-0.47513 -0.43805,-0.87609 -0.65707,-1.31413 -0.21902,-0.65707 -0.52123,-1.29204 -0.65706,-1.9712 -0.0859,-0.42954 0,-0.87609 0,-1.31413 -0.21903,-0.43805 -0.5022,-0.84952 -0.65707,-1.31413 -0.0693,-0.20779 0.098,-0.46117 0,-0.65707 -2.17921,-2.17921 0.30974,0.61949 -0.65707,-1.31413 -0.13852,-0.27704 -0.55911,-0.36322 -0.65706,-0.65706 -0.20778,-0.62335 0,-1.31414 0,-1.9712 0,-1.09511 0,-2.19022 0,-3.28533 0,-1.75217 0,-3.50435 0,-5.25652 0,-0.21902 0,-0.43805 0,-0.65707 0,-0.21902 -0.15487,-0.50219 0,-0.65706 0.15487,-0.15488 0.50219,0.15487 0.65706,0 0.30975,-0.30975 -0.30974,-1.00439 0,-1.31413 0.15488,-0.15488 0.5022,0.15487 0.65707,0 0.15487,-0.15488 -0.0979,-0.46117 0,-0.65707 0.13852,-0.27704 0.51854,-0.38002 0.65707,-0.65707 0.0979,-0.1959 -0.15488,-0.50219 0,-0.65706 0.3463,-0.34631 0.90663,-0.3854 1.31413,-0.65707 0.56698,-0.37798 1.45797,-1.45797 1.97119,-1.97119 0.21903,-0.21903 0.43805,-0.43805 0.65707,-0.65707 0.21902,-0.21902 0.51854,-0.38002 0.65706,-0.65706 0.0979,-0.1959 -0.15487,-0.5022 0,-0.65707 0.15488,-0.15487 0.5022,0.15487 0.65707,0 1.35949,-1.35949 -2.07748,0.0531 0.65707,-1.31413 0.39179,-0.1959 0.92233,0.1959 1.31413,0 0.55408,-0.27704 0.76004,-1.03709 1.31413,-1.31413 0.26052,-0.13026 1.83687,0.13433 1.97119,0 0.15488,-0.15487 -0.15487,-0.5022 0,-0.65707 0.15488,-0.15487 0.46117,0.0979 0.65707,0 0.17446,-0.0872 1.88397,-1.79674 1.9712,-1.97119 0.0979,-0.1959 -0.15488,-0.5022 0,-0.65707 0.15487,-0.15487 0.50219,0.15487 0.65706,0 0.30974,-0.30974 -0.30974,-1.00439 0,-1.31413 0.15487,-0.15487 0.50219,0.15487 0.65707,0 0.30974,-0.30974 -0.30975,-1.00439 0,-1.31413 0.15487,-0.15487 0.50219,0.15487 0.65706,0 0.15487,-0.15487 -0.0979,-0.46117 0,-0.65707 0.13852,-0.27704 0.51855,-0.38002 0.65707,-0.65706 0.0979,-0.1959 -0.15487,-0.5022 0,-0.65707 0.15487,-0.15487 0.43804,0 0.65706,0 0.61885,0 2.91155,0.1246 3.28533,0 0.29385,-0.098 0.38002,-0.51854 0.65707,-0.65706 0.19996,-0.1 1.67528,0 1.97119,0 0.3436,0 2.45549,-0.0864 2.62826,0 0.27705,0.13852 0.38003,0.51854 0.65707,0.65706 0.1959,0.0979 0.44928,-0.0693 0.65707,0 0.46461,0.15487 0.84951,0.5022 1.31413,0.65707 0.20778,0.0693 0.50219,-0.15487 0.65706,0 0.99167,0.99166 1.75218,2.19022 2.62826,3.28533 z"
       id="path3765"
       inkscape:connector-curvature="0" />
    <path
       style="fill:#ffffff;fill-opacity:1;stroke:#ffffff;stroke-width:1px;stroke-linecap:butt;stroke-linejoin:miter;stroke-opacity:1"
       d="m 180.69454,851.10379 c 0.87609,-0.43804 1.78835,-0.81018 2.62826,-1.31413 1.30169,0.0656 0.31077,-0.96783 0.65707,-1.31413 0.15487,-0.15487 0.50219,0.15487 0.65706,0 0.30975,-0.30974 -0.30974,-1.00439 0,-1.31413 0.34631,-0.34631 1.09511,-1.09511 1.31414,-0.65707 0.21902,0.43805 -1.75218,0.87609 -1.31414,0.65707 0.87609,-0.43805 1.75218,-0.87609 2.62827,-1.31413 0,-0.21903 -0.15487,-0.5022 0,-0.65707 0.32853,-0.32853 1.64266,0.32853 1.97119,0 0.15488,-0.15487 -0.15487,-0.50219 0,-0.65706 0.30975,-0.30975 0.89857,0.13852 1.31413,0 0.43805,-0.21903 0.87609,-0.43805 1.31414,-0.65707 0,-0.21902 -0.15488,-0.50219 0,-0.65707 0.32853,-0.32853 1.64266,0.32854 1.97119,0 0.15487,-0.15487 -0.15487,-0.50219 0,-0.65706 0.30975,-0.30974 0.92233,0.1959 1.31413,0 0.27705,-0.13852 0.38003,-0.51854 0.65707,-0.65707 0.3918,-0.1959 0.92233,0.1959 1.31413,0 0.27704,-0.13852 0.38002,-0.51854 0.65706,-0.65706 0.1959,-0.0979 0.46117,0.0979 0.65707,0 0.27704,-0.13852 0.38002,-0.51855 0.65707,-0.65707 0.19589,-0.0979 0.50219,0.15487 0.65706,0 0.15487,-0.15487 -0.15487,-0.50219 0,-0.65706 0.15487,-0.15487 0.50219,0.15487 0.65707,0 0.15487,-0.15487 -0.15488,-0.5022 0,-0.65707 0.32853,-0.32853 1.64266,0.32853 1.97119,0 0.15488,-0.15487 -0.15487,-0.50219 0,-0.65706 0.30975,-0.30975 0.92234,0.1959 1.31413,0 3.00714,-1.50357 -2.7882,0.27233 1.9712,-1.31413 0.20778,-0.0693 0.43804,0 0.65707,0 0.21902,-0.21903 0.38002,-0.51855 0.65706,-0.65707 0.1959,-0.0979 0.5022,0.15487 0.65707,0 0.15487,-0.15487 -0.15487,-0.50219 0,-0.65707 0.15487,-0.15487 0.46116,0.0979 0.65706,0 0.55409,-0.27704 0.76005,-1.03708 1.31413,-1.31413 0.1959,-0.0979 0.5022,0.15488 0.65707,0 0.15487,-0.15487 -0.15487,-0.50219 0,-0.65706 0.15487,-0.15487 0.46117,0.0979 0.65706,0 0.27705,-0.13852 0.38003,-0.51855 0.65707,-0.65707 0.1959,-0.0979 0.50219,0.15487 0.65707,0 0.15487,-0.15487 -0.15488,-0.50219 0,-0.65706 0.30974,-0.30975 1.00438,0.30974 1.31413,0 0.15487,-0.15487 -0.15488,-0.5022 0,-0.65707 0.30974,-0.30974 1.00438,0.30975 1.31413,0 0.15487,-0.15487 -0.15487,-0.50219 0,-0.65706 0.30974,-0.30975 1.00439,0.30974 1.31413,0 0.15487,-0.15488 -0.15487,-0.5022 0,-0.65707 0.32853,-0.32853 1.64266,0.32853 1.9712,0 0.15487,-0.15487 -0.15488,-0.50219 0,-0.65707 0.15811,-0.15811 2.47015,0.15812 2.62826,0 0.15487,-0.15487 -0.15487,-0.50219 0,-0.65706 0.15811,-0.15811 2.47015,0.15811 2.62826,0 0.15487,-0.15487 -0.15487,-0.50219 0,-0.65707 0.30974,-0.30974 0.92233,0.1959 1.31413,0 0.27704,-0.13852 0.38002,-0.51854 0.65707,-0.65706 0.1959,-0.0979 0.46116,0.0979 0.65706,0 0.27705,-0.13852 0.36322,-0.55912 0.65707,-0.65707 0.41556,-0.13852 0.92233,0.1959 1.31413,0 0.1959,-0.0979 -0.15487,-0.50219 0,-0.65706 0.15487,-0.15487 0.50219,0.15487 0.65706,0 0.15488,-0.15487 -0.15487,-0.5022 0,-0.65707 0.30975,-0.30974 0.92234,0.1959 1.31414,0 0.27704,-0.13852 0.38002,-0.51854 0.65706,-0.65706 0.35645,-0.17823 2.44848,0.17978 2.62826,0 0.15487,-0.15488 -0.15487,-0.5022 0,-0.65707 0.0264,-0.0264 2.38697,0 2.62827,0 1.81953,0 -0.50541,-0.65706 1.31413,-0.65706 0.21902,0 0.43804,0 0.65706,0 0.21902,0 0.5022,0.15487 0.65707,0 0.15487,-0.15488 -0.15487,-0.5022 0,-0.65707 0.15487,-0.15487 0.46116,0.0979 0.65706,0 0.27705,-0.13852 0.38002,-0.51854 0.65707,-0.65707 0.1959,-0.0979 0.50219,0.15488 0.65706,0 0.15488,-0.15487 -0.15487,-0.50219 0,-0.65706 0.15488,-0.15487 0.5022,0.15487 0.65707,0 0.15487,-0.15487 -0.15487,-0.50219 0,-0.65707 0.30974,-0.30974 1.00439,0.30975 1.31413,0 0.15487,-0.15487 -0.15487,-0.50219 0,-0.65706 0.15487,-0.15487 0.44928,0.0693 0.65707,0 0.46461,-0.15487 0.84951,-0.5022 1.31413,-0.65707 0.20778,-0.0693 0.46116,0.0979 0.65706,0 0.55409,-0.27704 0.76005,-1.03709 1.31413,-1.31413 0.3918,-0.1959 1.00439,0.30975 1.31413,0 0.15488,-0.15487 -0.15487,-0.50219 0,-0.65706 0.30975,-0.30975 0.92234,0.1959 1.31413,0 0.27705,-0.13853 0.38003,-0.51855 0.65707,-0.65707 0.26052,-0.13026 1.83687,0.13433 1.9712,0 0.15487,-0.15487 -0.15487,-0.50219 0,-0.65706 0.13433,-0.13433 1.71067,0.13026 1.97119,0 0.27705,-0.13853 0.38003,-0.51855 0.65707,-0.65707 0.52565,-0.26283 1.44554,0.26283 1.9712,0 0.27704,-0.13852 0.38002,-0.51854 0.65706,-0.65707 0.52565,-0.26282 1.44554,0.26283 1.9712,0 0.55408,-0.27704 0.76004,-1.03708 1.31413,-1.31413 0.3918,-0.1959 0.92233,0.1959 1.31413,0 0.27704,-0.13852 0.38002,-0.51854 0.65706,-0.65706 0.3918,-0.1959 1.00439,0.30974 1.31414,0 0.15487,-0.15487 -0.15488,-0.5022 0,-0.65707 0.32853,-0.32853 1.64266,0.32853 1.97119,0 0.15487,-0.15487 0,-0.43804 0,-0.65706 0,-1.09511 0,-2.19023 0,-3.28533 0,-0.21903 0.15487,-0.5022 0,-0.65707 -0.30974,-0.30974 -1.00439,0.30974 -1.31413,0 -0.15487,-0.15487 0.15487,-0.50219 0,-0.65707 -0.15487,-0.15487 -0.43804,0 -0.65706,0 -0.30981,0 -3.25555,0.0298 -3.28533,0 -0.15487,-0.15487 0.15487,-0.50219 0,-0.65706 -0.15487,-0.15487 -0.43805,0 -0.65707,0 -1.53315,0 -3.0663,0 -4.59946,0 -0.45701,0 -3.04771,0.11881 -3.28532,0 -0.27705,-0.13852 -0.38003,-0.51854 -0.65707,-0.65707 -0.41298,-0.20649 -2.21528,0.20649 -2.62826,0 -0.27704,-0.13852 -0.38002,-0.51854 -0.65707,-0.65706 -0.52565,-0.26283 -1.44554,0.26282 -1.97119,0 -0.27705,-0.13852 -0.38002,-0.51855 -0.65707,-0.65707 -0.1959,-0.0979 -0.43804,0 -0.65706,0 -0.21903,0 -0.43805,0 -0.65707,0 -1.31413,0 -2.62826,0 -3.94239,0 -0.21902,0 -0.43805,0 -0.65707,0 -0.21902,0 -0.50219,0.15487 -0.65706,0 -0.15487,-0.15487 0.15487,-0.50219 0,-0.65706 -0.15487,-0.15487 -0.43805,0 -0.65707,0 -0.21902,0 -0.43804,0 -0.65706,0 -1.75218,0 -3.50435,0 -5.25653,0 -0.36712,0 -2.89757,-0.12925 -3.28533,0 -0.46461,0.15487 -0.84951,0.50219 -1.31413,0.65706 -0.20778,0.0693 -0.46116,-0.0979 -0.65706,0 -0.27705,0.13852 -0.38002,0.51855 -0.65707,0.65707 -0.3918,0.1959 -0.92233,-0.1959 -1.31413,0 -0.27704,0.13852 -0.38002,0.51854 -0.65706,0.65706 -0.3918,0.1959 -0.92234,-0.1959 -1.31414,0 -0.27704,0.13853 -0.38002,0.51855 -0.65706,0.65707 -0.1959,0.0979 -0.44929,-0.0693 -0.65707,0 -0.46461,0.15487 -0.84951,0.50219 -1.31413,0.65706 -0.20778,0.0693 -0.50219,-0.15487 -0.65706,0 -0.15488,0.15488 0.15487,0.5022 0,0.65707 -0.30975,0.30974 -0.92234,-0.1959 -1.31413,0 -0.55409,0.27704 -0.76005,1.03709 -1.31414,1.31413 -0.39179,0.1959 -0.92233,-0.1959 -1.31413,0 -0.70632,0.35316 -1.26487,0.96097 -1.97119,1.31414 -0.1959,0.0979 -0.43805,0 -0.65707,0 -0.43804,0 -0.89857,-0.13853 -1.31413,0 -0.29385,0.0979 -0.36948,0.54203 -0.65707,0.65706 -0.83846,0.33539 -1.77155,0.3715 -2.62826,0.65707 -0.46461,0.15487 -0.84951,0.50219 -1.31413,0.65706 -0.20778,0.0693 -0.44928,-0.0693 -0.65706,0 -4.7594,1.58647 1.03593,-0.18943 -1.9712,1.31413 -0.35645,0.17823 -2.44847,-0.17978 -2.62826,0 -0.15487,0.15487 0.1959,0.55912 0,0.65707 -0.3918,0.1959 -0.87609,0 -1.31413,0 -0.21903,0 -0.47483,-0.12149 -0.65707,0 -0.51544,0.34363 -0.79869,0.9705 -1.31413,1.31413 -0.18224,0.12149 -0.46117,-0.0979 -0.65707,0 -0.27704,0.13852 -0.38002,0.51854 -0.65706,0.65707 -0.1959,0.0979 -0.46117,-0.098 -0.65707,0 -0.27704,0.13852 -0.38002,0.51854 -0.65706,0.65706 -0.1959,0.0979 -0.5022,-0.15487 -0.65707,0 -0.15487,0.15487 0.15487,0.50219 0,0.65707 -0.15487,0.15487 -0.50219,-0.15488 -0.65706,0 -1.35949,1.35949 2.07748,-0.0532 -0.65707,1.31413 -0.1959,0.0979 -0.46116,-0.0979 -0.65706,0 -0.78848,0.39424 -1.18272,1.57695 -1.9712,1.97119 -0.1959,0.0979 -0.46117,-0.0979 -0.65707,0 -0.27704,0.13853 -0.43804,0.43805 -0.65706,0.65707 -0.43804,0.43804 -0.79869,0.9705 -1.31413,1.31413 -0.18224,0.12149 -0.46117,-0.098 -0.65707,0 -1.45281,0.7264 -0.2039,0.4078 -0.65706,1.31413 -0.13852,0.27704 -0.43805,0.43804 -0.65707,0.65707 -0.21902,0.21902 -0.43804,0.43804 -0.65706,0.65706 -0.87609,0.87609 -1.75218,1.75218 -2.62827,2.62826 -0.21902,0.21903 -0.51854,0.38003 -0.65706,0.65707 -0.0979,0.1959 0.15487,0.50219 0,0.65706 -1.35949,1.3595 0.0531,-2.07748 -1.31413,0.65707 -0.0979,0.1959 0.15487,0.50219 0,0.65707 -0.15487,0.15487 -0.46117,-0.0979 -0.65707,0 -0.27704,0.13852 -0.43804,0.43804 -0.65706,0.65706 -0.87609,0.87609 -1.66079,1.85428 -2.62827,2.62826 -0.17102,0.13683 -0.50219,-0.15487 -0.65706,0 -0.3463,0.34631 -0.31076,0.96783 -0.65707,1.31413 -0.15487,0.15488 -0.46116,-0.098 -0.65706,0 -1.45281,0.72641 -0.2039,0.40781 -0.65707,1.31414 -0.13852,0.27704 -0.48525,0.39934 -0.65706,0.65706 -0.27167,0.4075 -0.5022,0.84952 -0.65707,1.31413 -0.0693,0.20778 0.15487,0.5022 0,0.65707 -0.15487,0.15487 -0.50219,-0.15487 -0.65706,0 -0.15488,0.15487 0.0979,0.46116 0,0.65706 -0.13853,0.27705 -0.51855,0.38003 -0.65707,0.65707 -0.0849,0.16988 0,3.47666 0,3.94239 0,0.45702 -0.11881,3.04771 0,3.28533 0.45602,0.91203 1.16913,0.65706 1.9712,0.65706 0.21902,0 0.43804,0 0.65706,0 0.21902,0 0.65707,-0.21902 0.65707,0 0,0.21903 -0.87609,0 -0.65707,0 0.43805,0 0.87609,0 1.31413,0 0.21903,0 0.43805,0 0.65707,0 0.21902,0 0.46117,-0.0979 0.65706,0 1.14228,0.57114 2.19022,1.31414 3.28533,1.9712 z"
       id="path3767"
       inkscape:connector-curvature="0" />
    <path
       style="fill:#ffffff;fill-opacity:1;stroke:#ffffff;stroke-width:1px;stroke-linecap:butt;stroke-linejoin:miter;stroke-opacity:1"
       d="m 25.399732,1051.3527 -3.461018,4.7589 0.721045,-6.7778 1.153673,-5.3357 4.037855,-10.2389 4.90311,-8.3641 5.768365,-8.3641 1.153673,-3.4611 0.865255,-2.5957 6.48941,7.7873 -20.910322,32.0144 z"
       id="path3779"
       inkscape:connector-curvature="0" />
    <path
       style="fill:#ffffff;fill-opacity:1;stroke:#ffffff;stroke-width:1px;stroke-linecap:butt;stroke-linejoin:miter;stroke-opacity:1"
       d="M 169.71429,984.93361 180,986.36218 l -8.13213,-7.54042 -6.15358,-3.31672 -10.57143,-3.14286 -10.28572,-0.85714 -8.57143,-0.28572 2,7.71429 z"
       id="path3783"
       inkscape:connector-curvature="0"
       sodipodi:nodetypes="ccccccccc" />
    <path
       style="fill:#ffffff;fill-opacity:1;stroke:#ffffff;stroke-width:1px;stroke-linecap:butt;stroke-linejoin:miter;stroke-opacity:1"
       d="m 209.6469,858.92659 16.27219,24.85207 14.20119,26.33136 9.46745,25.4438 32.84024,-18.63906 -34.61539,-82.24852 z"
       id="path3804"
       inkscape:connector-curvature="0" />
  </g>
</svg>
