<?xml version="1.0" encoding="UTF-8" standalone="no"?>
<!-- Created with Inkscape (http://www.inkscape.org/) -->

<svg
   xmlns:osb="http://www.openswatchbook.org/uri/2009/osb"
   xmlns:dc="http://purl.org/dc/elements/1.1/"
   xmlns:cc="http://creativecommons.org/ns#"
   xmlns:rdf="http://www.w3.org/1999/02/22-rdf-syntax-ns#"
   xmlns:svg="http://www.w3.org/2000/svg"
   xmlns="http://www.w3.org/2000/svg"
   xmlns:sodipodi="http://sodipodi.sourceforge.net/DTD/sodipodi-0.dtd"
   xmlns:inkscape="http://www.inkscape.org/namespaces/inkscape"
   width="173"
   height="173"
   id="svg3263"
   version="1.1"
   inkscape:version="0.48.2 r9819"
   sodipodi:docname="xcsoarswiftsplash.svg"
   enable-background="new"
   inkscape:export-filename="F:\XCS\xcsoar\Data\graphics\xcsoarswiftsplash.png"
   inkscape:export-xdpi="90"
   inkscape:export-ydpi="90">
  <defs
     id="defs3265">
    <linearGradient
       id="linearGradient5333"
       osb:paint="solid">
      <stop
         style="stop-color:#ffffff;stop-opacity:1;"
         offset="0"
         id="stop5335" />
    </linearGradient>
    <filter
       inkscape:collect="always"
       id="filter3318">
      <feBlend
         inkscape:collect="always"
         mode="lighten"
         in2="BackgroundImage"
         id="feBlend3320" />
    </filter>
    <clipPath
       clipPathUnits="userSpaceOnUse"
       id="clipPath3328">
      <path
         style="fill:none;stroke:#000000;stroke-width:1px;stroke-linecap:butt;stroke-linejoin:miter;stroke-opacity:1"
         d="m 72.321428,883.96932 6.428575,1.07143 11.42857,3.57143 25.714287,9.10714 16.25,8.75 13.21429,10.53571 12.85714,13.21429 11.07143,13.03571 -4.10714,4.10715 -17.5,18.92857 -11.25,14.99999 -8.03572,13.39286 -4.82143,9.2857 -4.10714,8.2143 -0.35714,1.6071 1.78571,3.2143 3.21429,6.4286 2.67857,8.5714 1.78571,6.6072 -0.17857,3.9285 -2.85714,-0.7142 -3.75,-6.25 -5.71429,-6.6072 -5.53571,-5.8928 -8.57143,-8.2143 -6.785717,-5.8929 -10.71429,-8.5714 -8.92857,-6.60716 -9.107142,-5.71428 L 56.25,982.00503 46.071428,977.1836 37.5,973.61218 l -8.035715,-3.21429 -10,-3.92857 -11.2499992,-3.21429 -6.071429,-1.96428 0,-1.25 0.178572,-2.14286 29.9999992,0 1.428572,-0.17857 5.357143,-8.39286 8.75,-12.85714 8.75,-13.57143 5.357143,-12.14286 4.821428,-11.42857 2.5,-8.03571 z"
         id="path3330"
         inkscape:connector-curvature="0" />
    </clipPath>
    <filter
       color-interpolation-filters="sRGB"
       inkscape:collect="always"
       id="filter3318-7">
      <feBlend
         inkscape:collect="always"
         mode="lighten"
         in2="BackgroundImage"
         id="feBlend3320-4" />
    </filter>
  </defs>
  <sodipodi:namedview
     id="base"
     pagecolor="#ffffff"
     bordercolor="#666666"
     borderopacity="1.0"
     inkscape:pageopacity="0.0"
     inkscape:pageshadow="2"
     inkscape:zoom="0.49497475"
     inkscape:cx="182.42857"
     inkscape:cy="99.514151"
     inkscape:document-units="px"
     inkscape:current-layer="layer1"
     showgrid="false"
     inkscape:window-width="1440"
     inkscape:window-height="878"
     inkscape:window-x="1272"
     inkscape:window-y="-8"
     inkscape:window-maximized="1">
    <inkscape:grid
       type="xygrid"
       id="grid4350" />
  </sodipodi:namedview>
  <metadata
     id="metadata3268">
    <rdf:RDF>
      <cc:Work
         rdf:about="">
        <dc:format>image/svg+xml</dc:format>
        <dc:type
           rdf:resource="http://purl.org/dc/dcmitype/StillImage" />
        <dc:title />
      </cc:Work>
    </rdf:RDF>
  </metadata>
  <g
     inkscape:label="hat background"
     inkscape:groupmode="layer"
     id="layer1"
     transform="translate(0,-879.36218)"
     style="display:inline;filter:url(#filter3318)">
    <path
       style="fill:#ff0000;fill-opacity:1;stroke:#000000;stroke-width:0.35714287;stroke-miterlimit:4;stroke-opacity:1;stroke-dasharray:none"
       d=""
       id="path3162"
       inkscape:connector-curvature="0"
       transform="translate(0,879.36218)" />
    <path
       style="fill:#000000;fill-opacity:1;stroke:#000000;stroke-width:0.98354685px;stroke-linecap:butt;stroke-linejoin:miter;stroke-opacity:1"
       d="m 2.025584,933.27062 3.7985535,-3.85611 3.4046654,-3.34688 3.4774151,-3.47732 1.987096,-1.98703 3.477416,-2.98055 4.470964,-3.97407 1.987095,-1.73866 3.477416,-2.73217 2.483868,-1.73865 1.34482,-1.15408 1.387436,-1.08134 2.980642,-1.98703 4.470964,-2.98056 3.156277,-1.92935 3.653053,-2.14759 3.622917,-2.13254 3.229029,-1.49027 2.732256,-1.16915 3.083528,-1.08134 4.119691,-1.4752 4.71935,-1.49028 4.470964,-1.24189 5.870881,-1.22683 6.548461,-1.25696 3.813621,-0.71501 3.657455,-0.48225 2.986344,-0.2289 4.120188,-0.16672 3.9473,0.17416 2.83635,0.17685 0.49678,2.73216 0.49678,2.4838 0.99354,3.97407 0.92373,3.77033 1.06336,4.42618 1.09792,4.88327 0.88918,3.31325 0.99355,4.32553 1.35068,4.67456 1.13318,3.66726 0.74517,2.48379 1.24193,3.97407 1.49033,4.96758 1.49032,4.22245 1.7387,4.50978 1.49032,3.43836 1.73871,3.97407 1.24194,2.73217 2.23548,4.22245 2.23548,4.7192 2.23548,3.97407 2.48387,4.22245 1.5932,2.48379 1.63583,2.73218 0.99355,1.49027 3.12614,0.4817 2.90789,0.43908 2.41112,0.49675 2.49894,0.58458 2.2781,0.65732 3.9165,1.3297 c 0,0 2.60099,1.00776 4.04693,1.5781 1.18783,0.46853 4.13477,1.98704 4.13477,1.98704 l 3.12614,1.9569 1.60827,1.16914 -2.48386,0 -2.48387,-0.0728 -2.48387,0.0728 -2.23548,0.24839 -3.47742,0.3362 -3.97419,0.65731 -2.98064,0.49676 -5.30157,0.95511 -3.95181,0.79034 -3.86399,0.79033 -3.24927,0.79035 -3.07363,0.79034 -2.98582,0.79033 -2.01981,0.70252 -2.898,0.70253 -3.07363,1.14159 -2.10762,0.61469 -2.72236,0.79037 -2.28327,0.79036 -2.98581,1.05372 -3.95181,1.40517 -2.98582,1.14169 -2.37108,1.0537 -3.337084,1.4929 -2.63454,1.1416 -2.985814,1.4928 -3.249266,1.5808 -3.600538,1.8441 -3.60054,2.1953 -4.039628,2.1955 -3.863993,2.1953 -3.863992,2.4588 -2.985813,2.0198 -2.810177,1.8441 -2.63454,1.8442 -2.810177,2.0196 -2.283268,1.6686 -2.371087,1.5806 -2.107632,1.5808 -2.722358,2.1075 -2.634541,2.1076 -2.371086,1.9319 -2.195451,1.7563 -2.810177,2.5467 -2.195449,1.9318 -2.897995,2.7224 -3.863992,3.6882 -2.019815,1.8441 0.43909,-2.1075 0.619889,-2.7543 1.048653,-2.8659 1.149649,-2.312 11.408327,-18.7637 1.405089,-3.0735 0,-1.1416 -1.580725,-4.0396 -2.019814,-4.8298 -0.707756,-2.1781 -2.321719,-5.5435 -2.107633,-5.5708 -1.728826,-4.20941 -1.931996,-5.08239 -2.261438,-5.39001 -2.058264,-4.65421 -2.261437,-4.68749 -2.52489,-4.85221 -2.206367,-3.67161 -1.580724,-2.63445 -1.844178,-2.89791 -1.492907,-2.37101 -1.92108,-2.97482 -1.465373,-2.06339 -1.756359,-2.42038 -2.0582656,-3.25489 -1.9319963,-2.81009 -2.0198139,-3.16135 -1.4929063,-2.37101 -1.2294521,-1.93194 -0.7025444,-0.87816 z"
       id="path4931"
       inkscape:connector-curvature="0"
       sodipodi:nodetypes="ccccccccccccccccccccccccccccccccccccccccccccccccccccccccccccccsccccccccccccccccccccccccccccccccccccccccccccccccccccccccccccccccccccccccccccccccccc" />
  </g>
  <g
     inkscape:groupmode="layer"
     id="layer2"
     inkscape:label="hat foreground"
     style="display:inline">
    <path
       style="fill:#ffffff;fill-opacity:1;stroke:#000000;stroke-width:1px;stroke-linecap:butt;stroke-linejoin:miter;stroke-opacity:1;display:inline;filter:url(#filter3318)"
       d="m 26.437267,48.09217 2.90419,-2.90419 2.52538,-2.27284 1.51523,-0.37881 1.38896,2.52538 2.02031,3.283 2.52538,4.29315 2.0203,3.03045 3.53554,5.66045 2.39911,4.18854 2.39911,4.54569 2.52538,4.54569 2.39912,4.67195 2.39911,4.67196 2.27284,4.41941 1.89404,4.16688 2.28182,4.8595 2.12491,4.34541 2.53435,4.80725 2.377445,4.69357 -2.34309,1.43235 -2.220543,1.14906 -2.860862,1.56756 -2.14657,1.6415 -1.01015,-3.0305 -1.6415,-4.2931 -0.88388,-2.5254 -1.01016,-2.9042 -1.64149,-3.78808 -1.6415,-4.04058 -1.89404,-3.78807 -1.51523,-3.40926 -1.6415,-3.15673 -1.76776,-3.6618 -2.27285,-4.41942 -1.38896,-2.65165 -2.13125,-3.92069 -2.28816,-3.90799 -1.76777,-3.15673 -1.40428,-2.51006 -1.37364,-2.28816 -1.13642,-2.27285 -1.38896,-2.39911 -1.51523,-2.39911 -1.89403,-2.52538 z"
       id="path5165"
       inkscape:connector-curvature="0"
       sodipodi:nodetypes="cccccccccccccccccccccccccccccccccccccccccccccc" />
    <path
       style="fill:#ffffff;fill-opacity:1;stroke:#000000;stroke-width:1px;stroke-linecap:butt;stroke-linejoin:miter;stroke-opacity:1;display:inline;filter:url(#filter3318-7)"
       d="m 16.745322,56.092084 2.90419,-2.90419 2.52538,-2.27284 1.51523,-0.37881 1.38896,2.52538 2.02031,3.283 2.52538,4.29315 2.02031,3.03045 3.35696,5.48187 2.57768,4.36712 2.39911,4.54569 2.52539,4.54568 2.39911,4.672 2.39911,4.6719 2.27284,4.4194 1.89404,4.166906 1.38896,3.7881 1.76777,4.1669 1.64149,3.9143 1.38896,3.9144 0.88389,2.6516 -2.77792,2.6518 -2.39911,1.7678 -2.14658,1.6415 -1.01015,-3.0305 -1.6415,-4.2933 -0.88388,-2.5254 -1.01015,-2.9041 -1.6415,-3.7881 -1.6415,-4.0406 -1.89404,-3.7881 -1.51523,-3.409306 -1.64149,-3.1567 -1.76777,-3.6618 -2.27284,-4.4194 -1.38896,-2.65168 -2.13126,-4.00998 -2.28816,-3.8187 -1.76777,-3.15673 -1.31499,-2.59935 -1.19507,-2.28816 -1.40428,-2.18356 -1.38896,-2.39911 -1.51523,-2.39911 -1.89404,-2.52538 z"
       id="path5165-1"
       inkscape:connector-curvature="0"
       clip-path="none"
       mask="none"
       sodipodi:nodetypes="cccccccccccccccccccccccccccccccccccccccccccccc" />
    <path
       style="fill:#ffffff;fill-opacity:1;stroke:#000000;stroke-width:1px;stroke-linecap:butt;stroke-linejoin:miter;stroke-opacity:1;display:inline;filter:url(#filter3318)"
       d="m 56.863029,139.4819 2.904189,-4.79823 2.146577,-2.77792 2.0203,-2.65165 2.39911,-2.65165 2.27285,-2.27284 2.39911,-2.39911 3.03046,-2.90419 2.52538,-2.02031 3.6095,-2.52538 4.34545,-2.65165 3.6618,-1.89404 3.53554,-1.51523 4.16688,-1.64149 3.27402,-1.04713 4.317415,-1.33032 4.65659,-1.28436 4.67194,-0.88388 5.05076,-0.63134 5.17703,-0.25254 3.6618,-0.12627 3.53554,0 3.33529,0.23721 2.59935,0.26786 1.6415,0.50508 -0.75761,0.75761 -3.40927,1.01016 -3.40926,1.13642 -3.15673,0.88388 -3.28299,1.13642 -2.90419,0.88389 -3.53554,1.38896 -4.92449,1.76776 -5.05074,1.76777 -5.05071,2.02031 -4.924485,1.89403 -3.78807,1.38896 -3.31998,1.46293 -3.62482,1.6938 -3.9883,2.00498 -3.71411,2.03563 -4.04061,2.52538 -4.04061,2.65165 -4.04061,2.52538 -3.89902,2.45776 -4.434738,3.22435 -2.020305,1.6415 z"
       id="path5953"
       inkscape:connector-curvature="0"
       sodipodi:nodetypes="cccccccccccccccccccccccccccccccccccccccccccccccc" />
    <path
       style="fill:#ffffff;fill-opacity:1;stroke:#000000;stroke-width:1px;stroke-linecap:butt;stroke-linejoin:miter;stroke-opacity:1;display:inline;filter:url(#filter3318)"
       d="m 92.190489,15.07409 -0.252538,1.136422 0.616026,2.784265 c 0,0 0.19858,0.53522 0.899203,3.529188 0.742295,3.172046 1.26269,4.924494 1.26269,4.924494 l 0.705313,2.5407 c 0,0 0.973164,2.636332 0.973164,3.141408 0,0.505076 0.846906,2.904189 0.846906,2.904189 l 0.88388,3.535534 0.75762,2.904188 0.883884,3.282996 0.883873,3.409265 1.01015,3.282996 1.22569,4.114577 1.29967,3.461567 1.51522,3.914341 1.13642,3.409265 1.5522,3.677121 1.47825,3.267677 1.89404,3.53553 1.38896,2.65166 1.51523,3.15672 1.76777,3.283 1.51522,2.77792 1.51523,2.77792 1.01016,1.76776 1.26269,1.13643 2.52538,-0.12627 c 0,0 2.52538,-0.37881 3.91434,-0.37881 1.38896,0 2.90419,-0.12627 2.90419,-0.12627 l 1.89403,-0.12627 1.51523,0 -1.26269,-2.14657 -1.6415,-2.52538 -1.62617,-2.52539 -1.53055,-2.39911 -1.57388,-2.42077 -2.25117,-3.68347 -1.93103,-3.335303 -1.83539,-3.372279 -1.76777,-3.587837 -1.75244,-3.92966 -1.33666,-3.356963 -1.31499,-3.840374 -1.13642,-3.409265 -1.01016,-3.030457 -1.01015,-3.282996 -0.88388,-2.904189 -1.26269,-4.545686 -0.90555,-3.30466 -1.11476,-4.650291 -1.01015,-4.04061 -0.88388,-3.282996 -0.88388,-2.867206 -0.63134,-3.446248 -0.3788,-2.272843 -0.12627,-1.136422 -0.88388,-1.010152 -3.66178,0 -2.020307,-0.126269 -2.52538,0 -1.38896,0 z"
       id="path5955"
       inkscape:connector-curvature="0"
       sodipodi:nodetypes="cccsccscccccccccccccccccccccscccccccccccccccccccccccccccccccccc" />
  </g>
</svg>
