<?xml version="1.0" encoding="UTF-8" standalone="no"?>
<!-- Created with Inkscape (http://www.inkscape.org/) -->

<svg
   xmlns:dc="http://purl.org/dc/elements/1.1/"
   xmlns:cc="http://creativecommons.org/ns#"
   xmlns:rdf="http://www.w3.org/1999/02/22-rdf-syntax-ns#"
   xmlns:svg="http://www.w3.org/2000/svg"
   xmlns="http://www.w3.org/2000/svg"
   xmlns:sodipodi="http://sodipodi.sourceforge.net/DTD/sodipodi-0.dtd"
   xmlns:inkscape="http://www.inkscape.org/namespaces/inkscape"
   width="21"
   height="18"
   id="svg2"
   version="1.1"
   inkscape:version="0.48.3.1 r9886"
   sodipodi:docname="checkmark.svg">
  <defs
     id="defs4" />
  <sodipodi:namedview
     id="base"
     pagecolor="#ffffff"
     bordercolor="#666666"
     borderopacity="1.0"
     inkscape:pageopacity="0.0"
     inkscape:pageshadow="2"
     inkscape:zoom="7.9195959"
     inkscape:cx="30.86613"
     inkscape:cy="5.7142897"
     inkscape:document-units="px"
     inkscape:current-layer="layer1"
     showgrid="false"
     inkscape:window-width="1600"
     inkscape:window-height="787"
     inkscape:window-x="0"
     inkscape:window-y="0"
     inkscape:window-maximized="1" />
  <metadata
     id="metadata7">
    <rdf:RDF>
      <cc:Work
         rdf:about="">
        <dc:format>image/svg+xml</dc:format>
        <dc:type
           rdf:resource="http://purl.org/dc/dcmitype/StillImage" />
        <dc:title />
      </cc:Work>
    </rdf:RDF>
  </metadata>
  <g
     inkscape:label="Layer 1"
     inkscape:groupmode="layer"
     id="layer1"
     transform="translate(0,-1034.3622)">
    <path
       style="fill:#000000;fill-opacity:1;stroke:#000000;stroke-width:0.14654844000000000px;stroke-linecap:butt;stroke-linejoin:miter;stroke-opacity:1"
       d="m 4.7721582,1041.6351 0.8352626,0.8658 0.7308563,0.8265 0.7308562,0.8264 0.6960524,0.7871 0.6960546,0.9445 0.3132243,0.4329 0.2784209,-0.7084 0.3132243,-0.669 0.5568419,-0.9445 0.6612503,-1.0233 0.696054,-1.0232 0.696054,-0.9445 0.730855,-0.9052 0.522039,-0.6691 0.696054,-0.8264 0.730857,-0.8658 0.80046,-0.8659 0.556843,-0.5903 0.626448,-0.669 0.38283,-0.4723 0.591645,-0.5903 0.382829,0.7871 0.38283,0.8265 0.452434,0.787 0.487238,0.7872 0.417631,0.6296 0.0348,0.1182 -0.417632,0.2361 -1.009277,0.8264 -0.800462,0.8659 -0.800461,0.8657 -0.939673,1.102 -0.835263,1.1019 -1.044081,1.2988 -0.730856,1.1019 -1.148486,1.5743 -0.90487,1.3774 -1.044079,1.5742 -0.5916465,1.102 -0.4872369,0.7477 -0.5220397,-0.7084 -0.8352645,-1.102 -0.9048691,-1.0625 -0.8352646,-0.9839 -0.9048692,-0.9839 -0.9744747,-1.0233 -0.9744737,-0.9838 -0.626449,-0.5904 0,-0.118 0.3828295,-0.4329 0.4524351,-0.551 0.4872369,-0.669 0.5220396,-0.7085 0.2784222,-0.4722 z"
       id="path2996"
       inkscape:connector-curvature="0"
       sodipodi:nodetypes="cccccccccccccccccccccccccccccccccccccccccccccccccccccccc" />
  </g>
</svg>
