<?xml version="1.0" encoding="UTF-8" standalone="no"?>
<!-- Created with Inkscape (http://www.inkscape.org/) -->

<svg
   xmlns:dc="http://purl.org/dc/elements/1.1/"
   xmlns:cc="http://creativecommons.org/ns#"
   xmlns:rdf="http://www.w3.org/1999/02/22-rdf-syntax-ns#"
   xmlns:svg="http://www.w3.org/2000/svg"
   xmlns="http://www.w3.org/2000/svg"
   xmlns:sodipodi="http://sodipodi.sourceforge.net/DTD/sodipodi-0.dtd"
   xmlns:inkscape="http://www.inkscape.org/namespaces/inkscape"
   width="32"
   height="32"
   id="svg2985"
   version="1.1"
   inkscape:version="0.48.3.1 r9886"
   inkscape:export-filename="C:\Documents and Settings\Administrator\Desktop\task.png"
   inkscape:export-xdpi="180"
   inkscape:export-ydpi="180"
   sodipodi:docname="settings.svg">
  <defs
     id="defs2987" />
  <sodipodi:namedview
     id="base"
     pagecolor="#ffffff"
     bordercolor="#666666"
     borderopacity="1.0"
     inkscape:pageopacity="0.0"
     inkscape:pageshadow="2"
     inkscape:zoom="16"
     inkscape:cx="10.424233"
     inkscape:cy="16.183198"
     inkscape:current-layer="layer1"
     showgrid="true"
     inkscape:grid-bbox="true"
     inkscape:document-units="px"
     inkscape:window-width="1600"
     inkscape:window-height="795"
     inkscape:window-x="0"
     inkscape:window-y="0"
     inkscape:window-maximized="1">
    <inkscape:grid
       type="xygrid"
       id="grid2993"
       empspacing="5"
       visible="true"
       enabled="true"
       snapvisiblegridlinesonly="true"
       spacingx="1px"
       spacingy="1px" />
  </sodipodi:namedview>
  <metadata
     id="metadata2990">
    <rdf:RDF>
      <cc:Work
         rdf:about="">
        <dc:format>image/svg+xml</dc:format>
        <dc:type
           rdf:resource="http://purl.org/dc/dcmitype/StillImage" />
        <dc:title />
      </cc:Work>
    </rdf:RDF>
  </metadata>
  <g
     id="layer1"
     inkscape:label="Layer 1"
     inkscape:groupmode="layer"
     transform="translate(0,16)">
    <path
       style="fill:#000000;fill-opacity:1;stroke:none"
       d="M 13.46875 2.15625 C 12.991164 2.15625 12.59375 2.5536638 12.59375 3.03125 L 12.59375 7.625 L 9.34375 4.375 C 9.0060456 4.0372956 8.4627044 4.0372956 8.125 4.375 L 4.46875 8.03125 C 4.1310456 8.3689544 4.1310456 8.9122956 4.46875 9.25 L 7.71875 12.5 L 3.125 12.5 C 2.6474138 12.5 2.25 12.897414 2.25 13.375 L 2.25 18.53125 C 2.25 19.008836 2.6474138 19.40625 3.125 19.40625 L 7.71875 19.40625 L 4.46875 22.65625 C 4.1310456 22.993954 4.1310456 23.537296 4.46875 23.875 L 8.125 27.53125 C 8.4627044 27.868954 9.0060456 27.868954 9.34375 27.53125 L 12.59375 24.28125 L 12.59375 28.875 C 12.59375 29.352586 12.991164 29.75 13.46875 29.75 L 18.625 29.75 C 19.102586 29.75 19.5 29.352586 19.5 28.875 L 19.5 24.28125 L 22.75 27.53125 C 23.087704 27.868954 23.631046 27.868954 23.96875 27.53125 L 27.625 23.875 C 27.962704 23.537296 27.962704 22.993954 27.625 22.65625 L 24.375 19.40625 L 28.96875 19.40625 C 29.446336 19.40625 29.84375 19.008836 29.84375 18.53125 L 29.84375 13.375 C 29.84375 12.897414 29.446336 12.5 28.96875 12.5 L 24.375 12.5 L 27.625 9.25 C 27.962704 8.9122956 27.962704 8.3689544 27.625 8.03125 L 23.96875 4.375 C 23.631046 4.0372956 23.087704 4.0372956 22.75 4.375 L 19.5 7.625 L 19.5 3.03125 C 19.5 2.5536638 19.102586 2.15625 18.625 2.15625 L 13.46875 2.15625 z M 16.15625 12.5625 C 18.06068 12.5625 19.59375 14.09557 19.59375 16 C 19.59375 17.90443 18.06068 19.4375 16.15625 19.4375 C 14.25182 19.4375 12.6875 17.90443 12.6875 16 C 12.6875 14.09557 14.25182 12.5625 16.15625 12.5625 z "
       transform="translate(0,-16)"
       id="rect3900" />
  </g>
</svg>
